<svg width="27" height="22" viewBox="0 0 27 22" fill="none" xmlns="http://www.w3.org/2000/svg">
<mask id="path-1-outside-1_22_116" maskUnits="userSpaceOnUse" x="0" y="0" width="27" height="22" fill="black">
<rect fill="white" width="27" height="22"/>
<path fill-rule="evenodd" clip-rule="evenodd" d="M9.13067 1C9.91152 1 10.6892 1.00318 11.4658 1.00636C13.0158 1.0127 14.5617 1.01903 16.1202 1C16.7193 1 17.1758 1.45698 17.1758 2.05677V3.11353C17.1758 3.94181 17.2328 3.99893 18.0887 3.99893H22.3109C22.7103 3.99893 22.9956 4.08461 22.9671 4.54159C22.9671 4.91289 22.8244 5.08426 22.425 5.08426H14.8935C14.5226 5.08426 14.2944 4.97001 14.2944 4.54159C14.2944 4.08461 14.5511 3.99893 14.922 3.99893H15.1217C16.1773 3.97037 16.5767 3.4277 16.1773 2.45662C16.0917 2.25669 15.6637 2.08533 15.407 2.05677C14.7651 2.01392 14.1232 2.01928 13.4813 2.02463C13.2673 2.02642 13.0534 2.0282 12.8394 2.0282H3.02554C2.16968 2.0282 2.11262 2.08533 2.11262 2.9136C2.11262 6.99786 2.11262 11.0821 2.08409 15.1664C2.08409 15.7947 2.28379 15.9661 2.88289 15.9375C3.37195 15.9049 3.86101 15.9095 4.35008 15.9142C4.71688 15.9177 5.08367 15.9212 5.45047 15.909C5.93546 15.909 6.16369 16.0803 6.13516 16.5944C6.11614 17.1657 6.12248 17.7369 6.12882 18.3081C6.13199 18.5937 6.13516 18.8793 6.13516 19.1649C6.13516 19.7647 6.36339 20.0218 6.99102 20.0218C8.83574 20.0027 10.6805 20.0091 12.5252 20.0154H12.5256C13.448 20.0186 14.3704 20.0218 15.2929 20.0218C16.1202 20.0218 16.2058 19.9075 16.2343 19.0507C16.2343 19.0112 16.2332 18.9705 16.2321 18.9294C16.2275 18.7626 16.2227 18.5884 16.2914 18.4509C16.3484 18.3081 16.5481 18.1367 16.7193 18.1367C16.8619 18.1367 17.1472 18.3081 17.1472 18.4223C17.2043 19.1649 17.2043 19.9075 17.1472 20.6216C17.1472 20.7644 16.6908 20.9643 16.4625 20.9643C14.1802 20.9929 11.898 20.9929 9.61566 20.9929C9.30295 20.9929 8.98847 20.9946 8.67309 20.9964L8.67245 20.9964H8.67244H8.67242H8.6724C7.72206 21.0018 6.76366 21.0072 5.82135 20.9643C5.42194 20.9357 4.93696 20.7644 4.62314 20.4788C3.56758 19.5077 2.54055 18.4795 1.54204 17.4227C1.25676 17.1085 1.05706 16.623 1.05706 16.2231C1.02282 13.3437 1.0194 10.454 1.01597 7.56017C1.01369 5.63172 1.01141 3.70144 1 1.77115C1 1.14281 1.25676 1 1.7988 1C3.43657 1.01907 5.07434 1.01268 6.70363 1.00632C7.5151 1.00316 8.32446 1 9.13067 1ZM19.9999 13.9098C19.3153 13.9383 18.6306 13.9098 17.9459 13.8812L17.9459 13.8812C17.3753 13.8526 17.1471 14.024 17.1756 14.6809C17.2041 15.3664 17.8032 15.8805 18.4879 15.8805H21.1411C21.512 15.8805 21.8258 16.0233 21.6546 16.4517C21.569 16.6516 21.3408 16.7944 21.1411 16.7944C19.087 16.823 17.0044 16.823 14.9504 16.7944C14.7507 16.7944 14.4083 16.5374 14.3513 16.3375C14.2371 15.909 14.608 15.8519 14.9218 15.8805C16.2776 15.9327 16.2752 15.6986 16.2647 14.6986C16.2637 14.6044 16.2627 14.5035 16.2627 14.3953V7.08362C16.2627 6.85513 16.3483 6.54095 16.4909 6.42671C16.8333 6.16966 17.1756 6.45527 17.1756 6.99793V11.7677C17.1756 12.7387 17.2612 12.8244 18.2597 12.8244H24.4789H24.9639C25.3633 12.8244 25.6771 13.0244 25.5916 13.4242C25.5345 13.6241 25.1636 13.8526 24.9639 13.8812C24.1366 13.9098 23.3093 13.9026 22.4819 13.8955C21.6546 13.8883 20.8273 13.8812 19.9999 13.9098ZM3.18407 17.3812H5.0042V19.2013L3.18407 17.3812Z"/>
</mask>
<path fill-rule="evenodd" clip-rule="evenodd" d="M9.13067 1C9.91152 1 10.6892 1.00318 11.4658 1.00636C13.0158 1.0127 14.5617 1.01903 16.1202 1C16.7193 1 17.1758 1.45698 17.1758 2.05677V3.11353C17.1758 3.94181 17.2328 3.99893 18.0887 3.99893H22.3109C22.7103 3.99893 22.9956 4.08461 22.9671 4.54159C22.9671 4.91289 22.8244 5.08426 22.425 5.08426H14.8935C14.5226 5.08426 14.2944 4.97001 14.2944 4.54159C14.2944 4.08461 14.5511 3.99893 14.922 3.99893H15.1217C16.1773 3.97037 16.5767 3.4277 16.1773 2.45662C16.0917 2.25669 15.6637 2.08533 15.407 2.05677C14.7651 2.01392 14.1232 2.01928 13.4813 2.02463C13.2673 2.02642 13.0534 2.0282 12.8394 2.0282H3.02554C2.16968 2.0282 2.11262 2.08533 2.11262 2.9136C2.11262 6.99786 2.11262 11.0821 2.08409 15.1664C2.08409 15.7947 2.28379 15.9661 2.88289 15.9375C3.37195 15.9049 3.86101 15.9095 4.35008 15.9142C4.71688 15.9177 5.08367 15.9212 5.45047 15.909C5.93546 15.909 6.16369 16.0803 6.13516 16.5944C6.11614 17.1657 6.12248 17.7369 6.12882 18.3081C6.13199 18.5937 6.13516 18.8793 6.13516 19.1649C6.13516 19.7647 6.36339 20.0218 6.99102 20.0218C8.83574 20.0027 10.6805 20.0091 12.5252 20.0154H12.5256C13.448 20.0186 14.3704 20.0218 15.2929 20.0218C16.1202 20.0218 16.2058 19.9075 16.2343 19.0507C16.2343 19.0112 16.2332 18.9705 16.2321 18.9294C16.2275 18.7626 16.2227 18.5884 16.2914 18.4509C16.3484 18.3081 16.5481 18.1367 16.7193 18.1367C16.8619 18.1367 17.1472 18.3081 17.1472 18.4223C17.2043 19.1649 17.2043 19.9075 17.1472 20.6216C17.1472 20.7644 16.6908 20.9643 16.4625 20.9643C14.1802 20.9929 11.898 20.9929 9.61566 20.9929C9.30295 20.9929 8.98847 20.9946 8.67309 20.9964L8.67245 20.9964H8.67244H8.67242H8.6724C7.72206 21.0018 6.76366 21.0072 5.82135 20.9643C5.42194 20.9357 4.93696 20.7644 4.62314 20.4788C3.56758 19.5077 2.54055 18.4795 1.54204 17.4227C1.25676 17.1085 1.05706 16.623 1.05706 16.2231C1.02282 13.3437 1.0194 10.454 1.01597 7.56017C1.01369 5.63172 1.01141 3.70144 1 1.77115C1 1.14281 1.25676 1 1.7988 1C3.43657 1.01907 5.07434 1.01268 6.70363 1.00632C7.5151 1.00316 8.32446 1 9.13067 1ZM19.9999 13.9098C19.3153 13.9383 18.6306 13.9098 17.9459 13.8812L17.9459 13.8812C17.3753 13.8526 17.1471 14.024 17.1756 14.6809C17.2041 15.3664 17.8032 15.8805 18.4879 15.8805H21.1411C21.512 15.8805 21.8258 16.0233 21.6546 16.4517C21.569 16.6516 21.3408 16.7944 21.1411 16.7944C19.087 16.823 17.0044 16.823 14.9504 16.7944C14.7507 16.7944 14.4083 16.5374 14.3513 16.3375C14.2371 15.909 14.608 15.8519 14.9218 15.8805C16.2776 15.9327 16.2752 15.6986 16.2647 14.6986C16.2637 14.6044 16.2627 14.5035 16.2627 14.3953V7.08362C16.2627 6.85513 16.3483 6.54095 16.4909 6.42671C16.8333 6.16966 17.1756 6.45527 17.1756 6.99793V11.7677C17.1756 12.7387 17.2612 12.8244 18.2597 12.8244H24.4789H24.9639C25.3633 12.8244 25.6771 13.0244 25.5916 13.4242C25.5345 13.6241 25.1636 13.8526 24.9639 13.8812C24.1366 13.9098 23.3093 13.9026 22.4819 13.8955C21.6546 13.8883 20.8273 13.8812 19.9999 13.9098ZM3.18407 17.3812H5.0042V19.2013L3.18407 17.3812Z" fill="#7DB7B4"/>
<path d="M11.4658 1.00636L11.4642 1.40636L11.4658 1.00636ZM16.1202 1V0.59997L16.1153 0.60003L16.1202 1ZM22.9671 4.54159L22.5679 4.51667L22.5671 4.52912V4.54159H22.9671ZM15.1217 3.99893V4.39908L15.1325 4.39878L15.1217 3.99893ZM16.1773 2.45662L16.5472 2.30446L16.545 2.29921L16.1773 2.45662ZM15.407 2.05677L15.4512 1.65922L15.4424 1.65824L15.4336 1.65765L15.407 2.05677ZM13.4813 2.02463L13.4846 2.42462L13.4813 2.02463ZM2.08409 15.1664L1.68409 15.1636V15.1664H2.08409ZM2.88289 15.9375L2.90194 16.3371L2.90953 16.3366L2.88289 15.9375ZM4.35008 15.9142L4.34626 16.3142H4.34626L4.35008 15.9142ZM5.45047 15.909V15.5087L5.43713 15.5092L5.45047 15.909ZM6.13516 16.5944L5.73568 16.5723L5.73538 16.5811L6.13516 16.5944ZM6.12882 18.3081L5.72885 18.3125L6.12882 18.3081ZM6.99102 20.0218V20.4218L6.99515 20.4218L6.99102 20.0218ZM12.5252 20.0154L12.5238 20.4154H12.5252V20.0154ZM12.5256 20.0154L12.527 19.6154H12.5256V20.0154ZM16.2343 19.0507L16.6343 19.064V19.0507H16.2343ZM16.2321 18.9294L16.6319 18.9184L16.2321 18.9294ZM16.2914 18.4509L16.6492 18.6296L16.6566 18.6148L16.6628 18.5993L16.2914 18.4509ZM17.1472 18.4223H16.7472V18.4377L16.7484 18.453L17.1472 18.4223ZM17.1472 20.6216L16.7485 20.5897L16.7472 20.6056V20.6216H17.1472ZM16.4625 20.9643V20.5643L16.4575 20.5643L16.4625 20.9643ZM8.67309 20.9964L8.67084 20.5964L8.66952 20.5964L8.67309 20.9964ZM8.67245 20.9964V21.3964L8.67603 21.3964L8.67245 20.9964ZM8.6724 20.9964V20.5964L8.67014 20.5964L8.6724 20.9964ZM5.82135 20.9643L5.79281 21.3634L5.80316 21.3639L5.82135 20.9643ZM4.62314 20.4788L4.35232 20.7731L4.3539 20.7746L4.62314 20.4788ZM1.54204 17.4227L1.24586 17.6917L1.2513 17.6974L1.54204 17.4227ZM1.05706 16.2231H1.45709L1.45703 16.2184L1.05706 16.2231ZM1.01597 7.56017L1.41597 7.5597L1.01597 7.56017ZM1 1.77115H0.599993L0.600007 1.77352L1 1.77115ZM1.7988 1L1.80346 0.6H1.7988V1ZM6.70363 1.00632L6.70519 1.40632L6.70363 1.00632ZM17.9459 13.8812L17.9626 13.4815L17.9626 13.4815L17.9459 13.8812ZM19.9999 13.9098L19.9861 13.51L19.9833 13.5101L19.9999 13.9098ZM17.9459 13.8812L17.9259 14.2807L17.9292 14.2808L17.9459 13.8812ZM17.1756 14.6809L17.5753 14.6643L17.5752 14.6635L17.1756 14.6809ZM21.6546 16.4517L22.0224 16.6092L22.026 16.6001L21.6546 16.4517ZM21.1411 16.7944V16.3944L21.1355 16.3945L21.1411 16.7944ZM14.9504 16.7944L14.9559 16.3944H14.9504V16.7944ZM14.3513 16.3375L13.9647 16.4404L13.9666 16.4472L14.3513 16.3375ZM14.9218 15.8805L14.8856 16.2788L14.896 16.2798L14.9064 16.2802L14.9218 15.8805ZM16.2647 14.6986L16.6647 14.6944V14.6944L16.2647 14.6986ZM16.4909 6.42671L16.2506 6.10668L16.2409 6.1145L16.4909 6.42671ZM25.5916 13.4242L25.9762 13.534L25.9799 13.5211L25.9827 13.5079L25.5916 13.4242ZM24.9639 13.8812L24.9777 14.281L24.9992 14.2802L25.0206 14.2772L24.9639 13.8812ZM5.0042 17.3812H5.4042V16.9812H5.0042V17.3812ZM3.18407 17.3812V16.9812H2.21838L2.90122 17.664L3.18407 17.3812ZM5.0042 19.2013L4.72135 19.4841L5.4042 20.167V19.2013H5.0042ZM11.4674 0.606363C10.691 0.603186 9.91247 0.6 9.13067 0.6V1.4C9.91056 1.4 10.6874 1.40318 11.4642 1.40636L11.4674 0.606363ZM16.1153 0.60003C14.5606 0.619011 13.018 0.612708 11.4674 0.606363L11.4642 1.40636C13.0137 1.4127 14.5628 1.41904 16.1251 1.39997L16.1153 0.60003ZM17.5758 2.05677C17.5758 1.2365 16.9406 0.6 16.1202 0.6V1.4C16.498 1.4 16.7758 1.67746 16.7758 2.05677H17.5758ZM17.5758 3.11353V2.05677H16.7758V3.11353H17.5758ZM18.0887 3.59893C17.8714 3.59893 17.7354 3.59474 17.6426 3.58123C17.5503 3.56781 17.5621 3.55278 17.59 3.57996C17.6198 3.60889 17.6064 3.62508 17.5934 3.54055C17.58 3.45344 17.5758 3.32427 17.5758 3.11353H16.7758C16.7758 3.31693 16.7786 3.5055 16.8027 3.66206C16.8271 3.82119 16.8815 4.00696 17.0325 4.15371C17.1817 4.2987 17.3682 4.34972 17.5273 4.37289C17.686 4.39598 17.878 4.39893 18.0887 4.39893V3.59893ZM22.3109 3.59893H18.0887V4.39893H22.3109V3.59893ZM23.3663 4.56652C23.3862 4.24741 23.2953 3.94891 23.0215 3.76619C22.7958 3.61553 22.5156 3.59893 22.3109 3.59893V4.39893C22.3988 4.39893 22.4647 4.40385 22.5136 4.41285C22.5628 4.42191 22.5783 4.43217 22.5774 4.4316C22.5761 4.43072 22.5721 4.42765 22.5676 4.42223C22.5631 4.41674 22.5614 4.41271 22.5615 4.41282C22.5621 4.41443 22.5725 4.44229 22.5679 4.51667L23.3663 4.56652ZM22.425 5.48426C22.6701 5.48426 22.9386 5.43334 23.1345 5.22901C23.3271 5.02825 23.3671 4.76411 23.3671 4.54159H22.5671C22.5671 4.69037 22.5358 4.69756 22.5571 4.67531C22.5819 4.64949 22.5794 4.68426 22.425 4.68426V5.48426ZM14.8935 5.48426H22.425V4.68426H14.8935V5.48426ZM13.8944 4.54159C13.8944 4.82388 13.9716 5.10067 14.2061 5.28684C14.4191 5.45594 14.6845 5.48426 14.8935 5.48426V4.68426C14.8191 4.68426 14.7686 4.6783 14.7355 4.67046C14.7037 4.66293 14.6983 4.65614 14.7036 4.66032C14.7116 4.66668 14.7126 4.67258 14.7093 4.66399C14.7044 4.65114 14.6944 4.61512 14.6944 4.54159H13.8944ZM14.922 3.59893C14.7274 3.59893 14.4578 3.61623 14.2374 3.77281C13.9833 3.9534 13.8944 4.23856 13.8944 4.54159H14.6944C14.6944 4.46262 14.7058 4.42695 14.71 4.41674C14.712 4.41176 14.7089 4.41918 14.7008 4.42497C14.6969 4.42771 14.7062 4.41959 14.7456 4.41176C14.7857 4.40377 14.8422 4.39893 14.922 4.39893V3.59893ZM15.1217 3.59893H14.922V4.39893H15.1217V3.59893ZM15.8073 2.60877C15.9864 3.04407 15.9336 3.25694 15.8671 3.35231C15.7945 3.45631 15.5936 3.58601 15.1109 3.59908L15.1325 4.39878C15.7054 4.38328 16.2319 4.22738 16.5231 3.81013C16.8203 3.38426 16.7676 2.84026 16.5472 2.30447L15.8073 2.60877ZM15.3628 2.45431C15.4401 2.46292 15.5682 2.49819 15.6842 2.5535C15.7405 2.58034 15.7821 2.60635 15.8081 2.62699C15.8385 2.65121 15.8248 2.64979 15.8095 2.61404L16.545 2.29921C16.4869 2.16349 16.3876 2.06568 16.3057 2.00064C16.2194 1.93203 16.1219 1.87593 16.0284 1.83136C15.8449 1.74386 15.6306 1.67918 15.4512 1.65922L15.3628 2.45431ZM13.4846 2.42462C14.129 2.41924 14.7559 2.4142 15.3803 2.45588L15.4336 1.65765C14.7743 1.61365 14.1174 1.61931 13.478 1.62465L13.4846 2.42462ZM12.8394 2.4282C13.0553 2.4282 13.2709 2.4264 13.4846 2.42462L13.478 1.62465C13.2637 1.62644 13.0514 1.6282 12.8394 1.6282V2.4282ZM3.02554 2.4282H12.8394V1.6282H3.02554V2.4282ZM2.51262 2.9136C2.51262 2.70287 2.51688 2.57369 2.53027 2.48659C2.54326 2.40205 2.55666 2.41824 2.52688 2.44717C2.49891 2.47435 2.48721 2.45933 2.57944 2.4459C2.67225 2.43239 2.80825 2.4282 3.02554 2.4282V1.6282C2.81489 1.6282 2.62281 1.63116 2.46421 1.65424C2.30504 1.67741 2.11859 1.72843 1.96938 1.87343C1.81836 2.02017 1.764 2.20594 1.73955 2.36507C1.71549 2.52163 1.71262 2.7102 1.71262 2.9136H2.51262ZM2.48408 15.1692C2.51262 11.0833 2.51262 6.99763 2.51262 2.9136H1.71262C1.71262 6.99809 1.71262 11.0809 1.6841 15.1636L2.48408 15.1692ZM2.86384 15.538C2.57477 15.5518 2.52861 15.5029 2.5334 15.5074C2.53893 15.5126 2.48409 15.4672 2.48409 15.1664H1.68409C1.68409 15.4939 1.7291 15.8483 1.98426 16.0892C2.23867 16.3293 2.59191 16.3518 2.90194 16.3371L2.86384 15.538ZM4.35389 15.5142C3.86735 15.5096 3.36305 15.5046 2.85625 15.5384L2.90953 16.3366C3.38085 16.3052 3.85467 16.3095 4.34626 16.3142L4.35389 15.5142ZM5.43713 15.5092C5.08034 15.5211 4.72212 15.5177 4.35389 15.5142L4.34626 16.3142C4.71163 16.3177 5.08701 16.3213 5.46381 16.3087L5.43713 15.5092ZM6.53455 16.6166C6.55154 16.3104 6.4995 15.9929 6.25913 15.7672C6.03048 15.5526 5.72085 15.509 5.45047 15.509V16.309C5.5507 16.309 5.61801 16.3181 5.66169 16.3299C5.68258 16.3356 5.69546 16.3411 5.70268 16.3449C5.70625 16.3468 5.7085 16.3482 5.70976 16.3491C5.711 16.35 5.71154 16.3505 5.71164 16.3506C5.71174 16.3507 5.71179 16.3507 5.71191 16.3509C5.71204 16.351 5.71257 16.3517 5.71344 16.3532C5.71511 16.3561 5.71914 16.3638 5.72348 16.3792C5.73273 16.4119 5.74135 16.4719 5.73578 16.5723L6.53455 16.6166ZM6.5288 18.3037C6.52244 17.731 6.51626 17.1686 6.53494 16.6077L5.73538 16.5811C5.71602 17.1627 5.72252 17.7428 5.72885 18.3125L6.5288 18.3037ZM6.53516 19.1649C6.53516 18.8767 6.53196 18.5889 6.5288 18.3037L5.72885 18.3125C5.73202 18.5985 5.73516 18.8819 5.73516 19.1649H6.53516ZM6.99102 19.6218C6.71822 19.6218 6.63807 19.5636 6.61438 19.5393C6.58841 19.5126 6.53516 19.4293 6.53516 19.1649H5.73516C5.73516 19.5004 5.79603 19.8455 6.04108 20.0973C6.28841 20.3514 6.6362 20.4218 6.99102 20.4218V19.6218ZM12.5265 19.6154C10.6823 19.6091 8.83482 19.6027 6.98689 19.6218L6.99515 20.4218C8.83665 20.4028 10.6786 20.4091 12.5238 20.4154L12.5265 19.6154ZM12.5256 19.6154H12.5252V20.4154H12.5256V19.6154ZM15.2929 19.6218C14.3712 19.6218 13.4495 19.6186 12.527 19.6154L12.5242 20.4154C13.4465 20.4186 14.3696 20.4218 15.2929 20.4218V19.6218ZM15.8345 19.0374C15.8274 19.2518 15.8171 19.3916 15.7986 19.4891C15.7804 19.5849 15.762 19.5938 15.7726 19.5826C15.7866 19.5678 15.7875 19.5827 15.7092 19.5978C15.6249 19.6141 15.4976 19.6218 15.2929 19.6218V20.4218C15.5018 20.4218 15.6954 20.4152 15.8608 20.3833C16.0321 20.3502 16.2113 20.283 16.3537 20.1325C16.4926 19.9857 16.5528 19.8054 16.5845 19.6387C16.6158 19.4738 16.627 19.278 16.6341 19.064L15.8345 19.0374ZM15.8322 18.9404C15.8334 18.9825 15.8343 19.0176 15.8343 19.0507H16.6343C16.6343 19.0047 16.633 18.9585 16.6319 18.9184L15.8322 18.9404ZM15.9335 18.2722C15.8114 18.5167 15.8284 18.8014 15.8322 18.9404L16.6319 18.9184C16.6266 18.7238 16.634 18.6601 16.6492 18.6296L15.9335 18.2722ZM16.7193 17.7367C16.5109 17.7367 16.3333 17.8345 16.2178 17.9239C16.1001 18.0149 15.982 18.1471 15.9199 18.3025L16.6628 18.5993C16.6586 18.6099 16.6579 18.607 16.6685 18.5941C16.678 18.5823 16.6916 18.5688 16.7073 18.5567C16.7232 18.5443 16.736 18.5375 16.7428 18.5347C16.7503 18.5315 16.7419 18.5367 16.7193 18.5367V17.7367ZM17.5472 18.4223C17.5472 18.2409 17.4445 18.1138 17.3975 18.0617C17.3376 17.9953 17.2669 17.9411 17.2025 17.8999C17.1365 17.8576 17.0631 17.8199 16.9889 17.7916C16.9207 17.7656 16.8242 17.7367 16.7193 17.7367V18.5367C16.7085 18.5367 16.7007 18.5359 16.6963 18.5354C16.6919 18.5348 16.6895 18.5343 16.6894 18.5342C16.6892 18.5342 16.6905 18.5345 16.6931 18.5353C16.6958 18.5361 16.6993 18.5373 16.7038 18.539C16.7232 18.5464 16.7478 18.5587 16.771 18.5735C16.7958 18.5894 16.8053 18.5995 16.8034 18.5974C16.8021 18.596 16.7913 18.5841 16.7794 18.5611C16.7679 18.5389 16.7472 18.4904 16.7472 18.4223H17.5472ZM17.546 20.6534C17.6047 19.9178 17.6046 19.1543 17.5461 18.3917L16.7484 18.453C16.8039 19.1756 16.8038 19.8973 16.7485 20.5897L17.546 20.6534ZM16.4625 21.3643C16.6609 21.3643 16.894 21.2877 17.0623 21.2077C17.151 21.1655 17.2477 21.1102 17.3292 21.042C17.3698 21.008 17.418 20.9614 17.4586 20.9012C17.4982 20.8426 17.5472 20.7462 17.5472 20.6216H16.7472C16.7472 20.5326 16.7819 20.4738 16.7957 20.4534C16.8105 20.4315 16.8212 20.4239 16.8155 20.4287C16.8042 20.4382 16.7725 20.4596 16.7187 20.4852C16.6676 20.5095 16.6105 20.5309 16.5579 20.5457C16.532 20.5529 16.5095 20.5579 16.4914 20.5609C16.4825 20.5624 16.4755 20.5633 16.4702 20.5638C16.4649 20.5643 16.4624 20.5643 16.4625 20.5643V21.3643ZM9.61566 21.3929C11.8975 21.3929 14.1823 21.3929 16.4675 21.3643L16.4575 20.5643C14.1782 20.5929 11.8984 20.5929 9.61566 20.5929V21.3929ZM8.67535 21.3964C8.99091 21.3946 9.30427 21.3929 9.61566 21.3929V20.5929C9.30163 20.5929 8.98602 20.5946 8.67084 20.5964L8.67535 21.3964ZM8.67603 21.3964L8.67667 21.3964L8.66952 20.5964L8.66888 20.5964L8.67603 21.3964ZM8.67244 21.3964H8.67245V20.5964H8.67244V21.3964ZM8.67242 21.3964H8.67244V20.5964H8.67242V21.3964ZM8.6724 21.3964H8.67242V20.5964H8.6724V21.3964ZM5.80316 21.3639C6.75743 21.4073 7.72613 21.4018 8.67465 21.3964L8.67014 20.5964C7.718 20.6018 6.7699 20.607 5.83953 20.5647L5.80316 21.3639ZM4.3539 20.7746C4.74714 21.1325 5.32321 21.3297 5.79281 21.3633L5.84988 20.5653C5.52068 20.5418 5.12677 20.3963 4.89238 20.1829L4.3539 20.7746ZM1.2513 17.6974C2.25477 18.7594 3.2885 19.7945 4.35232 20.7731L4.89396 20.1844C3.84666 19.2209 2.82633 18.1995 1.83279 17.148L1.2513 17.6974ZM0.657057 16.2231C0.657057 16.7321 0.900593 17.3113 1.24592 17.6916L1.83817 17.1538C1.61292 16.9057 1.45706 16.5139 1.45706 16.2231H0.657057ZM0.615975 7.56065C0.619398 10.4541 0.622816 13.346 0.657086 16.2279L1.45703 16.2184C1.42282 13.3415 1.4194 10.4539 1.41597 7.5597L0.615975 7.56065ZM0.600007 1.77352C0.611409 3.7027 0.613693 5.63203 0.615975 7.56065L1.41597 7.5597C1.41369 5.6314 1.41141 3.70017 1.39999 1.76879L0.600007 1.77352ZM1.7988 0.6C1.51785 0.6 1.18484 0.630621 0.934303 0.847549C0.668825 1.07741 0.6 1.41964 0.6 1.77115H1.4C1.4 1.63814 1.41399 1.55615 1.42958 1.50742C1.44354 1.46378 1.45627 1.45381 1.45797 1.45234C1.47132 1.44078 1.53771 1.4 1.7988 1.4V0.6ZM6.70207 0.606325C5.07227 0.612682 3.43761 0.61905 1.80346 0.600027L1.79415 1.39997C3.43554 1.41908 5.07642 1.41267 6.70519 1.40632L6.70207 0.606325ZM9.13067 0.6C8.32355 0.6 7.5134 0.603161 6.70207 0.606325L6.70519 1.40632C7.51679 1.40315 8.32537 1.4 9.13067 1.4V0.6ZM17.9293 14.2808C18.6111 14.3093 19.3125 14.3388 20.0166 14.3094L19.9833 13.5101C19.318 13.5378 18.6501 13.5102 17.9626 13.4815L17.9293 14.2808ZM17.9292 14.2808L17.9293 14.2808L17.9626 13.4815L17.9625 13.4815L17.9292 14.2808ZM17.5752 14.6635C17.569 14.5196 17.5783 14.427 17.5923 14.3694C17.599 14.3421 17.6058 14.3264 17.6099 14.3187C17.612 14.3148 17.6134 14.3127 17.6141 14.3118C17.6145 14.3113 17.6147 14.311 17.6148 14.3109C17.6149 14.3108 17.6149 14.3108 17.6149 14.3108C17.6149 14.3108 17.6149 14.3108 17.6149 14.3108C17.6149 14.3108 17.6149 14.3108 17.6149 14.3107C17.6149 14.3107 17.6149 14.3107 17.6149 14.3107C17.6149 14.3107 17.615 14.3107 17.615 14.3107C17.615 14.3107 17.615 14.3107 17.615 14.3107C17.6151 14.3106 17.6153 14.3105 17.6157 14.3102C17.6164 14.3097 17.6182 14.3085 17.6216 14.3068C17.6284 14.3035 17.6423 14.2978 17.6669 14.2923C17.7192 14.2808 17.8007 14.2744 17.9259 14.2807L17.9659 13.4817C17.6666 13.4667 17.3115 13.4899 17.0572 13.7372C16.8016 13.9859 16.7608 14.3494 16.776 14.6983L17.5752 14.6635ZM18.4879 15.4805C17.9923 15.4805 17.5938 15.111 17.5753 14.6643L16.7759 14.6975C16.8144 15.6217 17.6141 16.2805 18.4879 16.2805V15.4805ZM21.1411 15.4805H18.4879V16.2805H21.1411V15.4805ZM22.026 16.6001C22.0861 16.4498 22.1192 16.2867 22.0942 16.1219C22.068 15.9484 21.9821 15.8059 21.8625 15.7026C21.6471 15.5167 21.3531 15.4805 21.1411 15.4805V16.2805C21.2101 16.2805 21.2646 16.2873 21.3032 16.2971C21.3434 16.3074 21.3492 16.3164 21.3398 16.3082C21.3339 16.3032 21.3249 16.2937 21.3169 16.2795C21.3087 16.265 21.3047 16.2512 21.3032 16.2416C21.3006 16.224 21.3087 16.2394 21.2831 16.3033L22.026 16.6001ZM21.1411 17.1944C21.4986 17.1944 21.8728 16.9583 22.0223 16.6091L21.2869 16.2943C21.2802 16.3099 21.2601 16.3381 21.2216 16.3634C21.1821 16.3892 21.1501 16.3944 21.1411 16.3944V17.1944ZM14.9448 17.1944C17.0026 17.223 19.0889 17.223 21.1466 17.1944L21.1355 16.3945C19.0852 16.423 17.0063 16.423 14.9559 16.3945L14.9448 17.1944ZM13.9666 16.4472C14.0311 16.6732 14.2156 16.8534 14.3556 16.9596C14.4351 17.0199 14.5246 17.075 14.6177 17.1165C14.7056 17.1557 14.8227 17.1944 14.9504 17.1944V16.3944C14.9782 16.3944 14.9775 16.401 14.9434 16.3858C14.9143 16.3728 14.8772 16.3512 14.839 16.3222C14.8009 16.2933 14.7698 16.2632 14.7489 16.2381C14.725 16.2092 14.7293 16.2047 14.7359 16.2277L13.9666 16.4472ZM14.9581 15.4821C14.7873 15.4666 14.5127 15.4618 14.2844 15.5865C14.1556 15.6568 14.0346 15.7727 13.9721 15.9449C13.9122 16.1101 13.9226 16.2821 13.9647 16.4404L14.7378 16.2345C14.7229 16.1787 14.7368 16.1828 14.7242 16.2177C14.7178 16.2352 14.7074 16.2524 14.6944 16.2666C14.6821 16.2802 14.6714 16.2867 14.6678 16.2887C14.6639 16.2908 14.679 16.2823 14.7257 16.2774C14.7696 16.2729 14.8244 16.2733 14.8856 16.2788L14.9581 15.4821ZM15.8647 14.7028C15.8675 14.9627 15.8685 15.1347 15.8528 15.2647C15.8455 15.3258 15.8358 15.3629 15.8275 15.385C15.8236 15.3954 15.8204 15.4014 15.8185 15.4045C15.8168 15.4074 15.8157 15.4086 15.8151 15.4091C15.8146 15.4097 15.8131 15.4113 15.8092 15.4139C15.8052 15.4166 15.7978 15.4211 15.7853 15.4265C15.7593 15.4379 15.715 15.4519 15.6423 15.4634C15.4927 15.4872 15.2711 15.4936 14.9372 15.4808L14.9064 16.2802C15.2504 16.2934 15.537 16.2902 15.7679 16.2535C15.9998 16.2167 16.2263 16.1385 16.3961 15.9591C16.5658 15.7799 16.6233 15.5579 16.6471 15.3603C16.6704 15.1668 16.6672 14.9346 16.6647 14.6944L15.8647 14.7028ZM15.8627 14.3953C15.8627 14.5058 15.8638 14.6088 15.8647 14.7028L16.6647 14.6944C16.6637 14.6 16.6627 14.5011 16.6627 14.3953H15.8627ZM15.8627 7.08362V14.3953H16.6627V7.08362H15.8627ZM16.2409 6.1145C16.077 6.24577 15.9895 6.4444 15.9427 6.58932C15.8913 6.7483 15.8627 6.92542 15.8627 7.08362H16.6627C16.6627 7.01332 16.6768 6.91911 16.7039 6.83532C16.7171 6.79453 16.7309 6.76394 16.7423 6.74404C16.7549 6.72204 16.7571 6.72601 16.741 6.73892L16.2409 6.1145ZM17.5756 6.99793C17.5756 6.65658 17.469 6.31483 17.2179 6.10528C17.0873 5.99635 16.9217 5.92919 16.7379 5.93123C16.5566 5.93325 16.3904 6.00198 16.2507 6.10684L16.7311 6.74658C16.7626 6.72291 16.7676 6.73095 16.7468 6.73118C16.7372 6.73129 16.7271 6.72951 16.7181 6.72616C16.7095 6.72292 16.7054 6.71955 16.7054 6.71957C16.7063 6.72035 16.7243 6.73655 16.7426 6.78501C16.7606 6.83255 16.7756 6.9033 16.7756 6.99793H17.5756ZM17.5756 11.7677V6.99793H16.7756V11.7677H17.5756ZM18.2597 12.4244C18.0084 12.4244 17.8447 12.4185 17.7308 12.4007C17.6185 12.3831 17.61 12.3616 17.6227 12.374C17.6368 12.3878 17.6165 12.3833 17.5993 12.278C17.5816 12.1695 17.5756 12.0123 17.5756 11.7677H16.7756C16.7756 12.0085 16.7803 12.2263 16.8098 12.407C16.8398 12.5908 16.9034 12.7898 17.0637 12.9464C17.2226 13.1016 17.4227 13.1622 17.6073 13.1911C17.7903 13.2197 18.0117 13.2244 18.2597 13.2244V12.4244ZM24.4789 12.4244H18.2597V13.2244H24.4789V12.4244ZM24.9639 12.4244H24.4789V13.2244H24.9639V12.4244ZM25.9827 13.5079C26.0533 13.178 25.959 12.8737 25.7186 12.6695C25.5034 12.4867 25.2192 12.4244 24.9639 12.4244V13.2244C25.1081 13.2244 25.1805 13.2621 25.2006 13.2792C25.2045 13.2825 25.2054 13.2841 25.2051 13.2835C25.2049 13.2834 25.2047 13.283 25.2045 13.2825C25.2043 13.2821 25.2042 13.2819 25.2043 13.282C25.2043 13.2821 25.2055 13.2857 25.2057 13.2943C25.2059 13.3032 25.2052 13.3183 25.2004 13.3405L25.9827 13.5079ZM25.0206 14.2772C25.2053 14.2507 25.4067 14.1503 25.5576 14.0467C25.6385 13.9912 25.721 13.9239 25.7921 13.8465C25.8593 13.7734 25.938 13.6677 25.9762 13.534L25.2069 13.3144C25.2166 13.2807 25.2275 13.2786 25.2029 13.3053C25.1821 13.328 25.1488 13.357 25.1048 13.3872C25.0616 13.4169 25.0157 13.4424 24.9747 13.4608C24.9302 13.4807 24.9072 13.4852 24.9073 13.4852L25.0206 14.2772ZM22.4785 14.2955C23.3044 14.3026 24.1403 14.3099 24.9777 14.281L24.9501 13.4814C24.1329 13.5096 23.3141 13.5026 22.4854 13.4955L22.4785 14.2955ZM20.0137 14.3095C20.831 14.2813 21.6497 14.2883 22.4785 14.2955L22.4854 13.4955C21.6595 13.4884 20.8235 13.4811 19.9861 13.51L20.0137 14.3095ZM5.0042 16.9812H3.18407V17.7812H5.0042V16.9812ZM5.4042 19.2013V17.3812H4.6042V19.2013H5.4042ZM2.90122 17.664L4.72135 19.4841L5.28704 18.9184L3.46691 17.0983L2.90122 17.664Z" fill="#7DB7B4" mask="url(#path-1-outside-1_22_116)"/>
<path d="M9.76817 9.37639C8.20727 8.97486 7.7053 8.55972 7.7053 7.91319C7.7053 7.17139 8.3998 6.65417 9.56189 6.65417C10.7859 6.65417 11.2397 7.23264 11.2809 8.08333H12.8006C12.7525 6.91278 12.0305 5.8375 10.5933 5.49042V4H8.53045V5.47C7.19646 5.75583 6.12377 6.61333 6.12377 7.92681C6.12377 9.49889 7.43713 10.2815 9.3556 10.7375C11.0747 11.1458 11.4185 11.7447 11.4185 12.3776C11.4185 12.8472 11.0815 13.5958 9.56189 13.5958C8.14538 13.5958 7.58841 12.9697 7.51277 12.1667H6C6.08251 13.6571 7.21022 14.4942 8.53045 14.7732V16.25H10.5933V14.7868C11.9342 14.535 13 13.766 13 12.3708C13 10.4381 11.3291 9.77792 9.76817 9.37639Z" fill="#7DB7B4"/>
<rect x="4" y="17" width="1" height="2" fill="#7DB7B4"/>
</svg>
