<svg width="26" height="22" viewBox="0 0 26 22" fill="none" xmlns="http://www.w3.org/2000/svg">
<path d="M20.597 12.4866C20.597 15.0253 20.597 17.5641 20.597 20.0919C20.597 20.8832 20.5223 20.9601 19.7428 20.9601C15.2582 20.9601 10.763 20.9601 6.2784 20.9601C5.48826 20.9601 5.42419 20.8942 5.42419 20.0919C5.42419 14.9594 5.42419 9.83791 5.42419 4.70543C5.42419 3.93611 5.48826 3.88116 6.25705 3.87017C6.73754 3.87017 7.21803 3.85918 7.69852 3.87017C8.05088 3.87017 8.22172 3.69433 8.22172 3.33165C8.22172 2.85906 8.21104 2.38648 8.2324 1.9139C8.26443 1.30943 8.51002 1.02368 9.0866 1.01269C11.6919 1.0017 14.3079 0.99071 16.9133 1.01269C17.5005 1.01269 17.7675 1.33141 17.7888 1.95786C17.8102 2.39747 17.8102 2.83708 17.7995 3.27669C17.7888 3.68334 17.9597 3.88116 18.3761 3.88116C18.8886 3.87017 19.4011 3.87017 19.9243 3.88116C20.5116 3.89215 20.6077 3.99106 20.6077 4.65048C20.597 7.26618 20.5864 9.87088 20.597 12.4866ZM5.99011 12.4316C5.99011 14.8385 5.99011 17.2454 5.99011 19.6632C5.99011 20.3227 6.05417 20.3886 6.69483 20.3886C10.9018 20.3886 15.1088 20.3886 19.3157 20.3886C19.9884 20.3886 20.0311 20.3337 20.0311 19.6303C20.0311 16.7838 20.0311 13.9373 20.0311 11.0908C20.0311 9.10156 20.0204 7.11231 20.0311 5.12307C20.0311 4.66147 19.871 4.45266 19.4011 4.47464C18.91 4.49662 18.4081 4.46365 17.9063 4.47464C17.4044 4.49662 17.1909 4.25483 17.1909 3.74928C17.2016 3.24372 17.2016 2.72718 17.2122 2.22162C17.2229 1.78201 17.0414 1.60617 16.6036 1.60617C14.2012 1.61716 11.788 1.61716 9.3749 1.60617C8.93712 1.60617 8.76628 1.78201 8.77695 2.22162C8.79831 2.69421 8.79831 3.16679 8.78763 3.63937C8.77696 4.30978 8.64882 4.44167 8.00817 4.46365C7.60242 4.47464 7.19667 4.46365 6.78025 4.46365C6.01146 4.46365 5.97943 4.50761 5.96875 5.3099C5.99011 7.68381 5.99011 10.0577 5.99011 12.4316Z" fill="#7DB7B4" stroke="#7DB7B4" stroke-width="0.7" stroke-miterlimit="10"/>
<path d="M20.4084 12.4316C20.4084 9.89283 20.4084 7.36506 20.4084 4.8263C20.4084 3.92509 20.4618 3.90311 21.3481 3.88113C22.8856 3.83717 24.1029 4.37569 24.7222 5.90335C24.893 6.33197 24.9785 6.82653 24.9785 7.28812C24.9998 10.6951 24.9785 14.1021 24.9998 17.5201C25.0105 19.6412 23.5156 21.3118 20.8249 20.9601C20.4084 20.9051 20.4084 20.5864 20.4084 20.2567C20.4084 17.641 20.4084 15.0363 20.4084 12.4316ZM20.9744 12.4316C20.9744 12.8162 20.9744 13.2009 20.9744 13.5856C20.9744 15.6298 20.9744 17.674 20.9744 19.7182C20.9744 20.0808 21.0277 20.3556 21.4762 20.3886C23.1099 20.5205 24.4232 19.3555 24.4339 17.674C24.4553 14.1681 24.4553 10.6621 24.4339 7.16723C24.4232 5.59562 23.2914 4.4856 21.7859 4.47461C21.0384 4.46362 20.985 4.51857 20.985 5.32086C20.9744 7.69477 20.9744 10.0577 20.9744 12.4316Z" fill="#7DB7B4" stroke="#7DB7B4" stroke-width="0.7" stroke-miterlimit="10"/>
<path d="M5.54871 12.4645C5.54871 15.0362 5.54871 17.608 5.54871 20.1797C5.54871 20.8721 5.46329 20.938 4.77992 20.971C3.32777 21.0259 2.07849 20.6633 1.39513 19.2125C1.16022 18.707 1.03209 18.0915 1.02141 17.531C0.98938 14.157 1.01074 10.783 1.00006 7.39797C0.98938 5.12297 2.46289 3.60631 5.11093 3.89206C5.52735 3.93602 5.54871 4.24375 5.54871 4.57346C5.54871 6.67261 5.54871 8.77176 5.54871 10.8709C5.54871 11.3984 5.54871 11.937 5.54871 12.4645ZM4.99347 12.4205C4.99347 10.0137 5.00415 7.60678 4.99347 5.18892C4.99347 4.54049 4.91873 4.46355 4.28875 4.46355C2.70847 4.47455 1.58732 5.52961 1.57665 7.14519C1.54461 10.6621 1.55529 14.19 1.57665 17.7069C1.58732 19.2895 2.68712 20.3555 4.23537 20.3775C4.90805 20.3885 4.9828 20.3226 4.9828 19.6412C4.99347 17.2343 4.99347 14.8274 4.99347 12.4205Z" fill="#7DB7B4" stroke="#7DB7B4" stroke-width="0.7" stroke-miterlimit="10"/>
<path d="M18.6856 9.49729C18.6856 10.0248 18.6749 10.5524 18.6856 11.0799C18.6963 11.5195 18.5148 11.7613 18.0556 11.7503C17.4897 11.7393 16.9238 11.7393 16.3579 11.7393C15.9628 11.7393 15.7706 11.5305 15.7706 11.1348C15.7706 10.0578 15.7706 8.99173 15.7706 7.91468C15.7706 7.54101 15.9415 7.3322 16.3152 7.34319C16.9131 7.34319 17.5218 7.35418 18.1197 7.34319C18.5041 7.34319 18.6643 7.54101 18.6749 7.91468C18.6856 8.44222 18.6856 8.96975 18.6856 9.49729ZM18.0877 9.51927C18.0877 9.35441 18.0877 9.18956 18.0877 9.0247C18.0877 7.8927 18.045 7.85973 16.9452 7.92567C16.9238 7.92567 16.9131 7.92567 16.8918 7.92567C16.5714 7.92567 16.4006 8.09053 16.3899 8.42024C16.3899 9.1456 16.3686 9.88195 16.4006 10.6073C16.4113 10.7612 16.5501 11.003 16.6782 11.0579C17.5858 11.4096 18.077 11.0469 18.077 10.0578C18.0877 9.88195 18.0877 9.7061 18.0877 9.51927Z" fill="#7DB7B4"/>
<path d="M7.35693 9.51905C7.35693 8.99151 7.35693 8.46398 7.35693 7.93644C7.35693 7.5298 7.53845 7.33197 7.9442 7.34296C8.53147 7.35395 9.10806 7.35395 9.69532 7.34296C10.1011 7.33197 10.2612 7.56277 10.2719 7.94743C10.2719 9.0025 10.2719 10.0576 10.2719 11.1126C10.2719 11.5413 10.0797 11.7501 9.65261 11.7501C9.0867 11.7501 8.52079 11.7501 7.95488 11.7501C7.52777 11.7501 7.35693 11.5193 7.35693 11.1017C7.36761 10.5741 7.35693 10.0466 7.35693 9.51905ZM9.64194 9.53004C9.65261 9.53004 9.65261 9.53004 9.64194 9.53004C9.64194 9.36518 9.65261 9.20033 9.64194 9.03547C9.64194 7.89248 9.57787 7.83753 8.45672 7.92545C8.11504 7.95842 7.95488 8.1013 7.95488 8.46398C7.95488 9.01349 7.95488 9.55202 7.95488 10.1015C7.95488 11.1126 7.97623 11.1346 8.97993 11.1017C9.05467 11.1017 9.15077 11.1236 9.1828 11.0907C9.34296 10.9478 9.58855 10.7939 9.62058 10.6181C9.69532 10.2774 9.64194 9.90371 9.64194 9.53004Z" fill="#7DB7B4"/>
<path d="M18.0877 9.51916C18.0877 9.70599 18.0877 9.88184 18.0877 10.0687C18.0877 11.0578 17.5965 11.4205 16.6889 11.0688C16.5501 11.0138 16.4113 10.7721 16.4113 10.6182C16.3792 9.89283 16.4006 9.15648 16.4006 8.43112C16.4006 8.09042 16.5714 7.92556 16.9024 7.93656C16.9238 7.93656 16.9345 7.93656 16.9558 7.93656C18.0556 7.87061 18.0983 7.90358 18.0983 9.03559C18.0877 9.18945 18.0877 9.3543 18.0877 9.51916Z" fill="#7DB7B4"/>
<path d="M9.64183 9.53014C9.64183 9.89282 9.69522 10.2665 9.62047 10.6182C9.58844 10.805 9.34286 10.9479 9.18269 11.0908C9.13998 11.1237 9.04389 11.1018 8.97982 11.1018C7.97613 11.1237 7.95477 11.1018 7.95477 10.1016C7.95477 9.55212 7.95477 9.0136 7.95477 8.46408C7.95477 8.1014 8.11494 7.94754 8.4673 7.92556C9.57776 7.84863 9.65251 7.90358 9.65251 9.03558C9.65251 9.21142 9.65251 9.36529 9.64183 9.53014C9.65251 9.53014 9.65251 9.53014 9.64183 9.53014Z" fill="#7DB7B4"/>
<path d="M15.4612 3.81506H10.6563C10.3893 3.81506 10.1758 3.59525 10.1758 3.32049C10.1758 3.04573 10.3893 2.82593 10.6563 2.82593H15.4612C15.7281 2.82593 15.9417 3.04573 15.9417 3.32049C15.9417 3.59525 15.7281 3.81506 15.4612 3.81506Z" fill="#7DB7B4" stroke="#7DB7B4" stroke-width="0.7" stroke-miterlimit="10"/>
</svg>
