<svg width="24" height="19" viewBox="0 0 24 19" fill="none" xmlns="http://www.w3.org/2000/svg">
<path d="M15.4643 12.825H17.681V10.6083C17.681 9.99259 18.1736 9.5 18.7893 9.5C19.4051 9.5 19.8977 9.99259 19.8977 10.6083V12.825H22.1143C22.7301 12.825 23.2227 13.3176 23.2227 13.9333C23.2227 14.5491 22.7301 15.0417 22.1143 15.0417H19.8977V17.2583C19.8977 17.8741 19.4051 18.3667 18.7893 18.3667C18.1736 18.3667 17.681 17.8741 17.681 17.2583V15.0417H15.4643C14.8486 15.0417 14.356 14.5491 14.356 13.9333C14.356 13.3176 14.8486 12.825 15.4643 12.825Z" fill="#7DB7B4"/>
<path fill-rule="evenodd" clip-rule="evenodd" d="M17.3352 12.4366V9.4146C17.3084 9.14734 17.3532 8.88657 17.3985 8.62284L17.3985 8.62283C17.4154 8.52436 17.4324 8.42548 17.4458 8.32569V8.31346C18.834 6.88197 19.3377 5.21802 18.7726 3.3216C18.4163 2.15928 17.6669 1.2906 16.6104 0.691086C14.2393 -0.666993 11.8683 0.164983 9.82898 3.12584H9.8167C9.05502 1.42518 7.86336 0.324038 6.05745 0.0548691C4.75522 -0.14089 3.55128 0.189454 2.48248 1.00919C0.848553 2.26939 -0.343107 5.37707 2.27363 8.1544C2.24176 8.19067 2.21158 8.2303 2.18121 8.27018C2.12963 8.33792 2.0775 8.40637 2.01564 8.46028C0.602848 9.61036 -0.0236931 11.1153 0.00087738 12.9138C0.00906563 14.0557 0.00633621 15.1977 0.0036068 16.3396L0.00360107 16.342C0.00223923 16.9121 0.00087738 17.4823 0.00087738 18.0525C0.00087738 18.9946 0.000879288 18.9946 0.971403 18.9946C1.69612 18.9946 2.41948 18.9959 3.14238 18.9973L3.14405 18.9973C4.5896 19 6.03333 19.0027 7.48252 18.9946C9.15941 18.9884 9.95488 18.9793 10.7503 18.9701H10.7504C11.5458 18.9609 12.3413 18.9517 14.0182 18.9456H17.3352C17.3027 18.8486 17.3132 18.7516 17.324 18.6511C17.3295 18.5994 17.3352 18.5469 17.3352 18.4929V15.4709H14.4359C13.5882 15.4709 12.9003 14.7735 12.9126 13.9293C12.9248 13.0851 13.6497 12.4366 14.485 12.4366H16.2295H17.3352ZM9.48567 9.30643C9.20077 9.03673 8.9002 8.7522 8.61275 8.44804C8.52676 8.3624 8.50219 8.1177 8.56361 8.04429C8.86124 7.63112 9.1721 7.22454 9.48162 6.81972L9.48165 6.81967L9.48175 6.81954L9.48185 6.81942L9.48195 6.81929L9.48205 6.81916C9.594 6.67273 9.70578 6.52653 9.8167 6.38034H9.82898C9.93761 6.54416 10.047 6.70876 10.1568 6.87395L10.157 6.87426C10.4818 7.36282 10.8099 7.85649 11.1312 8.35016C10.7231 8.72366 10.315 9.10702 9.92463 9.47368L9.92457 9.47373L9.79213 9.59812C9.69305 9.50274 9.59042 9.40559 9.48567 9.30643ZM14.2504 7.38892C12.793 7.38892 11.6115 6.20744 11.6115 4.75003C11.6115 3.29261 12.793 2.11114 14.2504 2.11114C15.7079 2.11114 16.8893 3.29261 16.8893 4.75003C16.8893 6.20744 15.7079 7.38892 14.2504 7.38892ZM2.7449 4.75005C2.7449 6.20747 3.92637 7.38894 5.38379 7.38894C6.84121 7.38894 8.02268 6.20747 8.02268 4.75005C8.02268 3.29264 6.84121 2.11117 5.38379 2.11117C3.92637 2.11117 2.7449 3.29264 2.7449 4.75005ZM6.33377 8.97225L10.556 13.1945V16.8889H2.11155V13.1945C1.93562 11.963 2.11155 9.39447 6.33377 8.97225Z" fill="#7DB7B4"/>
</svg>
