<svg width="24" height="22" viewBox="0 0 24 22" fill="none" xmlns="http://www.w3.org/2000/svg">
<path d="M19.1712 11.1077C18.7326 11.2015 18.2833 11.2536 17.8126 11.2536C17.6949 11.2536 17.5879 11.2536 17.481 11.2432C17.481 12.2539 17.481 13.2751 17.481 14.2858C17.481 14.8694 17.481 15.4633 17.4703 16.0468C17.4489 16.6616 17.2563 16.87 16.6358 16.8804C13.266 16.9221 9.90685 16.9638 6.537 16.9742C5.59559 16.9742 4.75045 17.1722 4.02299 17.7974C3.59508 18.1621 3.13507 18.4955 2.66436 18.7977C2.4718 18.9228 2.12946 19.0478 2.00109 18.9644C1.82992 18.8602 1.73364 18.5372 1.73364 18.308C1.71225 13.7753 1.72294 9.25296 1.71225 4.72025C1.71225 3.69908 1.90481 3.53236 2.9639 3.53236C5.21046 3.54278 7.45702 3.53236 9.70358 3.53236C10.3989 3.53236 11.0943 3.53236 11.7897 3.53236C11.9608 2.94884 12.2069 2.39658 12.5385 1.89641C9.25427 1.89641 5.95932 1.91725 2.67506 1.87557C1.27363 1.85473 -0.0315139 2.8238 0.00057985 4.45974C0.0754652 7.77332 0.0326736 11.0869 0.0326736 14.4005C0.0326736 15.9218 0.0326736 17.4535 0.0326736 18.9749C0.0326736 19.673 0.0112778 20.3607 0.0326736 21.0589C0.0647673 21.9446 0.66385 22.2676 1.39131 21.757C2.31133 21.111 3.20995 20.4337 4.08718 19.7251C4.92162 19.0478 5.76675 18.5789 6.94352 18.6102C10.1636 18.6831 13.3944 18.631 16.6144 18.631C17.9196 18.631 19.214 17.3806 19.1819 16.0781C19.1391 14.4317 19.1605 12.7645 19.1712 11.1077Z" fill="#7DB7B4"/>
<path d="M18.294 9.37804C20.9527 9.37804 23.108 7.27869 23.108 4.68902C23.108 2.09935 20.9527 0 18.294 0C15.6352 0 13.4799 2.09935 13.4799 4.68902C13.4799 7.27869 15.6352 9.37804 18.294 9.37804Z" fill="#7DB7B4"/>
<path d="M12.5171 9.37796H4.81462C4.27972 9.37796 3.85181 8.96116 3.85181 8.44015C3.85181 7.91915 4.27972 7.50235 4.81462 7.50235H12.5171C13.052 7.50235 13.4799 7.91915 13.4799 8.44015C13.4799 8.96116 13.052 9.37796 12.5171 9.37796Z" fill="#7DB7B4"/>
<path d="M10.5915 12.1915H4.81462C4.27972 12.1915 3.85181 11.7747 3.85181 11.2537C3.85181 10.7327 4.27972 10.3159 4.81462 10.3159H10.5915C11.1264 10.3159 11.5543 10.7327 11.5543 11.2537C11.5543 11.7747 11.1264 12.1915 10.5915 12.1915Z" fill="#7DB7B4"/>
<path d="M9.62868 15.0048H4.81462C4.27972 15.0048 3.85181 14.588 3.85181 14.067C3.85181 13.546 4.27972 13.1292 4.81462 13.1292H9.62868C10.1636 13.1292 10.5915 13.546 10.5915 14.067C10.5915 14.588 10.1636 15.0048 9.62868 15.0048Z" fill="#7DB7B4"/>
</svg>
