<svg width="164" height="116" viewBox="0 0 164 116" fill="none" xmlns="http://www.w3.org/2000/svg">
<path d="M26.1044 93.212L29.5964 89.6H27.7844L23.7884 93.824V89.6H22.3124V98H23.7884V95.564L25.0964 94.22L27.9644 98H29.7524L26.1044 93.212ZM31.0917 89.6V98H32.5677V89.6H31.0917ZM40.6843 95.408L36.1843 89.6H34.8163V98H36.2683V92.024L40.9003 98H42.1363V89.6H40.6843V95.408ZM48.0888 93.212L51.5808 89.6H49.7688L45.7728 93.824V89.6H44.2968V98H45.7728V95.564L47.0808 94.22L49.9488 98H51.7368L48.0888 93.212ZM56.5537 94.652L59.8897 89.6H58.1977L55.8217 93.32L53.4697 89.6H51.7297L55.0657 94.688V98H56.5537V94.652ZM73.1932 93.788C73.1932 93.196 73.0852 92.636 72.8692 92.108C72.6532 91.58 72.3532 91.12 71.9692 90.728C71.5852 90.336 71.1252 90.028 70.5892 89.804C70.0532 89.572 69.4612 89.456 68.8132 89.456C68.1652 89.456 67.5732 89.572 67.0372 89.804C66.5012 90.036 66.0372 90.352 65.6452 90.752C65.2532 91.144 64.9492 91.604 64.7332 92.132C64.5172 92.66 64.4092 93.22 64.4092 93.812C64.4092 94.404 64.5172 94.964 64.7332 95.492C64.9492 96.02 65.2492 96.48 65.6332 96.872C66.0172 97.264 66.4772 97.576 67.0132 97.808C67.5492 98.032 68.1412 98.144 68.7892 98.144C69.4372 98.144 70.0292 98.028 70.5652 97.796C71.1012 97.564 71.5652 97.252 71.9572 96.86C72.3492 96.46 72.6532 95.996 72.8692 95.468C73.0852 94.94 73.1932 94.38 73.1932 93.788ZM71.6452 93.812C71.6452 94.22 71.5732 94.608 71.4292 94.976C71.2932 95.336 71.1012 95.652 70.8532 95.924C70.6052 96.188 70.3052 96.4 69.9532 96.56C69.6092 96.712 69.2292 96.788 68.8132 96.788C68.3972 96.788 68.0132 96.708 67.6612 96.548C67.3092 96.388 67.0052 96.172 66.7492 95.9C66.5012 95.628 66.3052 95.312 66.1612 94.952C66.0252 94.584 65.9572 94.196 65.9572 93.788C65.9572 93.38 66.0252 92.996 66.1612 92.636C66.3052 92.268 66.5012 91.952 66.7492 91.688C66.9972 91.416 67.2932 91.204 67.6372 91.052C67.9892 90.892 68.3732 90.812 68.7892 90.812C69.2052 90.812 69.5892 90.892 69.9412 91.052C70.2932 91.212 70.5932 91.428 70.8412 91.7C71.0972 91.972 71.2932 92.292 71.4292 92.66C71.5732 93.02 71.6452 93.404 71.6452 93.812ZM76.1659 91.796C76.1659 91.516 76.2859 91.28 76.5259 91.088C76.7659 90.888 77.1019 90.788 77.5339 90.788C77.9179 90.788 78.2979 90.864 78.6739 91.016C79.0499 91.16 79.4299 91.372 79.8139 91.652L80.6059 90.536C80.1739 90.192 79.7099 89.932 79.2139 89.756C78.7259 89.572 78.1739 89.48 77.5579 89.48C77.1419 89.48 76.7579 89.54 76.4059 89.66C76.0539 89.772 75.7499 89.936 75.4939 90.152C75.2459 90.368 75.0499 90.628 74.9059 90.932C74.7619 91.228 74.6899 91.56 74.6899 91.928C74.6899 92.32 74.7499 92.652 74.8699 92.924C74.9979 93.196 75.1779 93.428 75.4099 93.62C75.6499 93.812 75.9419 93.972 76.2859 94.1C76.6379 94.228 77.0379 94.344 77.4859 94.448C77.8779 94.544 78.1939 94.636 78.4339 94.724C78.6819 94.812 78.8739 94.908 79.0099 95.012C79.1539 95.108 79.2499 95.216 79.2979 95.336C79.3539 95.456 79.3819 95.592 79.3819 95.744C79.3819 96.072 79.2459 96.332 78.9739 96.524C78.7099 96.716 78.3499 96.812 77.8939 96.812C77.3659 96.812 76.8939 96.72 76.4779 96.536C76.0619 96.344 75.6499 96.072 75.2419 95.72L74.3539 96.776C74.8579 97.232 75.4059 97.572 75.9979 97.796C76.5899 98.012 77.2099 98.12 77.8579 98.12C78.2979 98.12 78.7019 98.064 79.0699 97.952C79.4379 97.84 79.7539 97.676 80.0179 97.46C80.2819 97.244 80.4859 96.98 80.6299 96.668C80.7819 96.356 80.8579 96 80.8579 95.6C80.8579 95.248 80.7979 94.944 80.6779 94.688C80.5659 94.424 80.3979 94.196 80.1739 94.004C79.9499 93.804 79.6659 93.636 79.3219 93.5C78.9859 93.364 78.5979 93.24 78.1579 93.128C77.7579 93.032 77.4259 92.94 77.1619 92.852C76.9059 92.764 76.7019 92.668 76.5499 92.564C76.4059 92.46 76.3059 92.348 76.2499 92.228C76.1939 92.108 76.1659 91.964 76.1659 91.796ZM85.9699 90.968H88.6339V89.6H81.8179V90.968H84.4819V98H85.9699V90.968ZM96.4271 89.6H90.1991V98H96.4871V96.68H91.6751V94.424H95.8871V93.104H91.6751V90.92H96.4271V89.6ZM104.106 95.408L99.6062 89.6H98.2382V98H99.6902V92.024L104.322 98H105.558V89.6H104.106V95.408ZM115.315 93.788C115.315 93.196 115.207 92.644 114.991 92.132C114.775 91.62 114.467 91.176 114.067 90.8C113.675 90.424 113.203 90.132 112.651 89.924C112.107 89.708 111.507 89.6 110.851 89.6H107.719V98H110.851C111.507 98 112.107 97.892 112.651 97.676C113.203 97.46 113.675 97.164 114.067 96.788C114.467 96.412 114.775 95.968 114.991 95.456C115.207 94.936 115.315 94.38 115.315 93.788ZM113.767 93.812C113.767 94.228 113.695 94.612 113.551 94.964C113.415 95.308 113.219 95.608 112.963 95.864C112.715 96.112 112.411 96.308 112.051 96.452C111.691 96.588 111.291 96.656 110.851 96.656H109.195V90.944H110.851C111.291 90.944 111.691 91.016 112.051 91.16C112.411 91.304 112.715 91.504 112.963 91.76C113.219 92.016 113.415 92.32 113.551 92.672C113.695 93.016 113.767 93.396 113.767 93.812ZM125.517 93.788C125.517 93.196 125.409 92.636 125.193 92.108C124.977 91.58 124.677 91.12 124.293 90.728C123.909 90.336 123.449 90.028 122.913 89.804C122.377 89.572 121.785 89.456 121.137 89.456C120.489 89.456 119.897 89.572 119.361 89.804C118.825 90.036 118.361 90.352 117.969 90.752C117.577 91.144 117.273 91.604 117.057 92.132C116.841 92.66 116.733 93.22 116.733 93.812C116.733 94.404 116.841 94.964 117.057 95.492C117.273 96.02 117.573 96.48 117.957 96.872C118.341 97.264 118.801 97.576 119.337 97.808C119.873 98.032 120.465 98.144 121.113 98.144C121.761 98.144 122.353 98.028 122.889 97.796C123.425 97.564 123.889 97.252 124.281 96.86C124.673 96.46 124.977 95.996 125.193 95.468C125.409 94.94 125.517 94.38 125.517 93.788ZM123.969 93.812C123.969 94.22 123.897 94.608 123.753 94.976C123.617 95.336 123.425 95.652 123.177 95.924C122.929 96.188 122.629 96.4 122.277 96.56C121.933 96.712 121.553 96.788 121.137 96.788C120.721 96.788 120.337 96.708 119.985 96.548C119.633 96.388 119.329 96.172 119.073 95.9C118.825 95.628 118.629 95.312 118.485 94.952C118.349 94.584 118.281 94.196 118.281 93.788C118.281 93.38 118.349 92.996 118.485 92.636C118.629 92.268 118.825 91.952 119.073 91.688C119.321 91.416 119.617 91.204 119.961 91.052C120.313 90.892 120.697 90.812 121.113 90.812C121.529 90.812 121.913 90.892 122.265 91.052C122.617 91.212 122.917 91.428 123.165 91.7C123.421 91.972 123.617 92.292 123.753 92.66C123.897 93.02 123.969 93.404 123.969 93.812ZM134.429 98L132.161 94.82C132.457 94.74 132.725 94.628 132.965 94.484C133.213 94.332 133.425 94.152 133.601 93.944C133.777 93.728 133.913 93.484 134.009 93.212C134.113 92.932 134.165 92.616 134.165 92.264C134.165 91.856 134.093 91.488 133.949 91.16C133.805 90.824 133.597 90.544 133.325 90.32C133.061 90.088 132.733 89.912 132.341 89.792C131.957 89.664 131.525 89.6 131.045 89.6H127.301V98H128.777V95.072H130.625L132.689 98H134.429ZM132.665 92.348C132.665 92.78 132.509 93.124 132.197 93.38C131.885 93.636 131.465 93.764 130.937 93.764H128.777V90.944H130.925C131.477 90.944 131.905 91.064 132.209 91.304C132.513 91.536 132.665 91.884 132.665 92.348ZM142.225 89.6H135.973V98H137.449V94.58H141.685V93.236H137.449V90.944H142.225V89.6Z" fill="#666666"/>
<path d="M16.2793 111.05L18.4493 108.83H17.4893L14.6993 111.74V106.7H13.9293V114H14.6993V112.65L15.7493 111.59L17.5993 114H18.5193L16.2793 111.05ZM20.5227 107.7V106.85H19.6427V107.7H20.5227ZM20.4627 114V108.83H19.6927V114H20.4627ZM23.0196 111.04C23.0196 110.8 23.0563 110.58 23.1296 110.38C23.2096 110.18 23.3196 110.01 23.4596 109.87C23.5996 109.723 23.763 109.613 23.9496 109.54C24.143 109.46 24.3496 109.42 24.5696 109.42C25.0296 109.42 25.383 109.56 25.6296 109.84C25.8763 110.12 25.9996 110.5 25.9996 110.98V114H26.7696V110.79C26.7696 110.483 26.723 110.203 26.6296 109.95C26.543 109.697 26.413 109.48 26.2396 109.3C26.073 109.113 25.8663 108.97 25.6196 108.87C25.3796 108.77 25.103 108.72 24.7896 108.72C24.343 108.72 23.9796 108.82 23.6996 109.02C23.4196 109.213 23.193 109.45 23.0196 109.73V108.83H22.2496V114H23.0196V111.04ZM30.7618 111.05L32.9318 108.83H31.9718L29.1818 111.74V106.7H28.4118V114H29.1818V112.65L30.2318 111.59L32.0818 114H33.0018L30.7618 111.05ZM38.6486 108.83H37.8286L36.1686 113.14L34.2886 108.83H33.4386L35.7886 113.98C35.6353 114.347 35.4786 114.6 35.3186 114.74C35.1586 114.88 34.962 114.95 34.7286 114.95C34.562 114.95 34.4153 114.933 34.2886 114.9C34.1686 114.873 34.0453 114.827 33.9186 114.76L33.6586 115.37C33.832 115.457 34.0053 115.52 34.1786 115.56C34.352 115.607 34.5453 115.63 34.7586 115.63C35.1453 115.63 35.472 115.52 35.7386 115.3C36.012 115.08 36.2586 114.703 36.4786 114.17L38.6486 108.83ZM43.2215 112.55V112.53C43.2215 112.297 43.1715 112.1 43.0715 111.94C42.9782 111.78 42.8515 111.643 42.6915 111.53C42.5315 111.417 42.3515 111.323 42.1515 111.25C41.9582 111.177 41.7615 111.11 41.5615 111.05C41.3882 110.997 41.2215 110.943 41.0615 110.89C40.9015 110.837 40.7582 110.777 40.6315 110.71C40.5115 110.643 40.4149 110.567 40.3415 110.48C40.2682 110.387 40.2315 110.28 40.2315 110.16V110.14C40.2315 109.927 40.3215 109.75 40.5015 109.61C40.6815 109.463 40.9249 109.39 41.2315 109.39C41.4849 109.39 41.7415 109.437 42.0015 109.53C42.2682 109.617 42.5215 109.737 42.7615 109.89L43.1115 109.31C42.8449 109.137 42.5482 109 42.2215 108.9C41.8949 108.793 41.5715 108.74 41.2515 108.74C40.9982 108.74 40.7615 108.777 40.5415 108.85C40.3282 108.917 40.1415 109.017 39.9815 109.15C39.8282 109.277 39.7082 109.433 39.6215 109.62C39.5349 109.8 39.4915 110 39.4915 110.22V110.24C39.4915 110.48 39.5415 110.68 39.6415 110.84C39.7482 111 39.8815 111.133 40.0415 111.24C40.2082 111.347 40.3915 111.437 40.5915 111.51C40.7982 111.577 41.0015 111.64 41.2015 111.7C41.3682 111.747 41.5282 111.797 41.6815 111.85C41.8415 111.903 41.9815 111.967 42.1015 112.04C42.2215 112.107 42.3149 112.187 42.3815 112.28C42.4549 112.373 42.4915 112.483 42.4915 112.61V112.63C42.4915 112.883 42.3915 113.083 42.1915 113.23C41.9915 113.377 41.7349 113.45 41.4215 113.45C41.1149 113.45 40.8082 113.393 40.5015 113.28C40.2015 113.167 39.9115 113.003 39.6315 112.79L39.2415 113.34C39.5349 113.573 39.8715 113.76 40.2515 113.9C40.6315 114.033 41.0082 114.1 41.3815 114.1C41.6415 114.1 41.8815 114.067 42.1015 114C42.3282 113.927 42.5215 113.823 42.6815 113.69C42.8482 113.557 42.9782 113.397 43.0715 113.21C43.1715 113.017 43.2215 112.797 43.2215 112.55ZM45.702 108.85V108.43C45.702 107.697 46.002 107.33 46.602 107.33C46.7353 107.33 46.8587 107.343 46.972 107.37C47.0853 107.39 47.212 107.42 47.352 107.46V106.79C47.2253 106.743 47.0953 106.71 46.962 106.69C46.8353 106.67 46.682 106.66 46.502 106.66C46.002 106.66 45.6153 106.807 45.342 107.1C45.0753 107.393 44.942 107.823 44.942 108.39V108.84H44.232V109.51H44.942V114H45.712V109.51H47.342V108.85H45.702ZM49.0939 111.94C49.0939 111.553 49.1472 111.213 49.2539 110.92C49.3605 110.62 49.5072 110.37 49.6939 110.17C49.8805 109.97 50.0972 109.82 50.3439 109.72C50.5972 109.62 50.8639 109.57 51.1439 109.57H51.2039V108.74C50.9572 108.733 50.7272 108.763 50.5139 108.83C50.3005 108.897 50.1039 108.997 49.9239 109.13C49.7439 109.257 49.5839 109.41 49.4439 109.59C49.3039 109.77 49.1872 109.967 49.0939 110.18V108.83H48.3239V114H49.0939V111.94ZM56.0466 111.79C56.0466 112.03 56.0066 112.25 55.9266 112.45C55.8466 112.65 55.7366 112.823 55.5966 112.97C55.4633 113.11 55.2999 113.22 55.1066 113.3C54.9199 113.373 54.7166 113.41 54.4966 113.41C54.0366 113.41 53.6833 113.27 53.4366 112.99C53.1899 112.71 53.0666 112.33 53.0666 111.85V108.83H52.2966V112.04C52.2966 112.347 52.3399 112.627 52.4266 112.88C52.5199 113.133 52.6499 113.353 52.8166 113.54C52.9899 113.72 53.1966 113.86 53.4366 113.96C53.6833 114.06 53.9633 114.11 54.2766 114.11C54.7233 114.11 55.0866 114.013 55.3666 113.82C55.6466 113.62 55.8733 113.38 56.0466 113.1V114H56.8066V108.83H56.0466V111.79ZM59.4387 107.7V106.85H58.5587V107.7H59.4387ZM59.3787 114V108.83H58.6087V114H59.3787ZM62.2057 109.51H63.8457V108.83H62.2057V107.27H61.4357V108.83H60.7157V109.51H61.4357V112.63C61.4357 112.89 61.4723 113.113 61.5457 113.3C61.619 113.487 61.719 113.64 61.8457 113.76C61.979 113.873 62.1357 113.957 62.3157 114.01C62.4957 114.063 62.689 114.09 62.8957 114.09C63.0823 114.09 63.249 114.07 63.3957 114.03C63.549 113.997 63.6923 113.943 63.8257 113.87V113.21C63.6923 113.277 63.5657 113.323 63.4457 113.35C63.3323 113.377 63.209 113.39 63.0757 113.39C62.8157 113.39 62.6057 113.327 62.4457 113.2C62.2857 113.073 62.2057 112.85 62.2057 112.53V109.51ZM66.0486 114V106.7H65.2786V114H66.0486ZM69.7056 109.44C70.1923 109.44 70.5689 109.56 70.8356 109.8C71.1089 110.033 71.2456 110.383 71.2456 110.85V111.03C71.0123 110.963 70.7723 110.91 70.5256 110.87C70.2789 110.83 69.9889 110.81 69.6556 110.81C69.3289 110.81 69.0289 110.847 68.7556 110.92C68.4889 110.993 68.2556 111.1 68.0556 111.24C67.8623 111.38 67.7123 111.557 67.6056 111.77C67.4989 111.977 67.4456 112.217 67.4456 112.49C67.4456 112.763 67.4989 113 67.6056 113.2C67.7189 113.4 67.8656 113.57 68.0456 113.71C68.2323 113.843 68.4389 113.943 68.6656 114.01C68.8989 114.077 69.1356 114.11 69.3756 114.11C69.8356 114.11 70.2156 114.02 70.5156 113.84C70.8223 113.66 71.0656 113.453 71.2456 113.22V114H71.9856V110.84C71.9856 110.153 71.7956 109.637 71.4156 109.29C71.0356 108.937 70.4923 108.76 69.7856 108.76C69.4056 108.76 69.0689 108.8 68.7756 108.88C68.4823 108.953 68.1923 109.057 67.9056 109.19L68.1356 109.82C68.3756 109.707 68.6189 109.617 68.8656 109.55C69.1189 109.477 69.3989 109.44 69.7056 109.44ZM69.7356 111.38C70.0556 111.38 70.3389 111.403 70.5856 111.45C70.8389 111.497 71.0623 111.547 71.2556 111.6V112.1C71.2556 112.307 71.2089 112.497 71.1156 112.67C71.0289 112.837 70.9056 112.983 70.7456 113.11C70.5923 113.23 70.4089 113.327 70.1956 113.4C69.9889 113.467 69.7656 113.5 69.5256 113.5C69.3523 113.5 69.1856 113.477 69.0256 113.43C68.8723 113.383 68.7356 113.317 68.6156 113.23C68.4956 113.137 68.3989 113.027 68.3256 112.9C68.2589 112.773 68.2256 112.627 68.2256 112.46C68.2256 112.127 68.3556 111.863 68.6156 111.67C68.8756 111.477 69.2489 111.38 69.7356 111.38ZM78.8466 111.41C78.8466 110.983 78.7766 110.603 78.6366 110.27C78.4966 109.937 78.3099 109.657 78.0766 109.43C77.8433 109.197 77.5766 109.02 77.2766 108.9C76.9833 108.78 76.6833 108.72 76.3766 108.72C76.1366 108.72 75.9166 108.753 75.7166 108.82C75.5233 108.88 75.3466 108.963 75.1866 109.07C75.0266 109.17 74.8799 109.29 74.7466 109.43C74.6199 109.57 74.5033 109.717 74.3966 109.87V106.7H73.6266V114H74.3966V113.01C74.4966 113.157 74.6099 113.297 74.7366 113.43C74.8699 113.563 75.0166 113.68 75.1766 113.78C75.3366 113.88 75.5166 113.96 75.7166 114.02C75.9166 114.08 76.1366 114.11 76.3766 114.11C76.6899 114.11 76.9933 114.05 77.2866 113.93C77.5866 113.803 77.8499 113.627 78.0766 113.4C78.3099 113.167 78.4966 112.883 78.6366 112.55C78.7766 112.217 78.8466 111.837 78.8466 111.41ZM78.0566 111.42C78.0566 111.733 78.0066 112.017 77.9066 112.27C77.8133 112.517 77.6833 112.727 77.5166 112.9C77.3566 113.067 77.1633 113.197 76.9366 113.29C76.7166 113.377 76.4833 113.42 76.2366 113.42C75.9966 113.42 75.7633 113.373 75.5366 113.28C75.3166 113.18 75.1166 113.043 74.9366 112.87C74.7633 112.697 74.6233 112.487 74.5166 112.24C74.4166 111.987 74.3666 111.71 74.3666 111.41C74.3666 111.11 74.4166 110.837 74.5166 110.59C74.6233 110.343 74.7633 110.133 74.9366 109.96C75.1166 109.787 75.3166 109.653 75.5366 109.56C75.7633 109.46 75.9966 109.41 76.2366 109.41C76.4833 109.41 76.7166 109.457 76.9366 109.55C77.1566 109.643 77.3499 109.78 77.5166 109.96C77.6833 110.133 77.8133 110.343 77.9066 110.59C78.0066 110.837 78.0566 111.113 78.0566 111.42ZM88.6772 110.84C88.6772 110.32 88.5639 109.82 88.3372 109.34C88.1172 108.86 87.8106 108.44 87.4172 108.08C87.0239 107.713 86.5606 107.423 86.0272 107.21C85.5006 106.99 84.9306 106.88 84.3172 106.88C83.7039 106.88 83.1306 106.997 82.5972 107.23C82.0639 107.463 81.6006 107.78 81.2072 108.18C80.8139 108.573 80.5039 109.037 80.2772 109.57C80.0506 110.097 79.9372 110.66 79.9372 111.26C79.9372 111.86 80.0472 112.423 80.2672 112.95C80.4939 113.477 80.8072 113.937 81.2072 114.33C81.6072 114.73 82.0772 115.043 82.6172 115.27C83.1639 115.503 83.7572 115.62 84.3972 115.62C84.9172 115.62 85.3906 115.553 85.8172 115.42C86.2506 115.287 86.6606 115.103 87.0472 114.87L86.8872 114.6C86.5006 114.827 86.1139 114.997 85.7272 115.11C85.3406 115.223 84.8972 115.28 84.3972 115.28C83.7972 115.28 83.2439 115.173 82.7372 114.96C82.2372 114.753 81.8072 114.467 81.4472 114.1C81.0872 113.74 80.8039 113.317 80.5972 112.83C80.3972 112.343 80.2972 111.82 80.2972 111.26C80.2972 110.707 80.3972 110.187 80.5972 109.7C80.8039 109.207 81.0872 108.777 81.4472 108.41C81.8072 108.043 82.2306 107.753 82.7172 107.54C83.2106 107.327 83.7439 107.22 84.3172 107.22C84.8906 107.22 85.4206 107.323 85.9072 107.53C86.3939 107.73 86.8139 108 87.1672 108.34C87.5272 108.68 87.8072 109.067 88.0072 109.5C88.2139 109.933 88.3172 110.38 88.3172 110.84C88.3172 111.193 88.2772 111.5 88.1972 111.76C88.1172 112.02 88.0106 112.237 87.8772 112.41C87.7506 112.577 87.6039 112.7 87.4372 112.78C87.2706 112.86 87.0972 112.9 86.9172 112.9C86.6439 112.9 86.4339 112.83 86.2872 112.69C86.1406 112.543 86.0672 112.343 86.0672 112.09C86.0672 112.037 86.0706 111.957 86.0772 111.85C86.0906 111.743 86.1106 111.62 86.1372 111.48L86.5372 109.21L85.8672 109.12L85.7372 109.81C85.6772 109.703 85.6039 109.6 85.5172 109.5C85.4306 109.4 85.3272 109.313 85.2072 109.24C85.0872 109.16 84.9506 109.097 84.7972 109.05C84.6439 109.003 84.4706 108.98 84.2772 108.98C83.9972 108.98 83.7172 109.043 83.4372 109.17C83.1639 109.297 82.9172 109.473 82.6972 109.7C82.4772 109.92 82.3006 110.183 82.1672 110.49C82.0339 110.79 81.9672 111.117 81.9672 111.47C81.9672 111.743 82.0139 111.993 82.1072 112.22C82.2006 112.44 82.3272 112.63 82.4872 112.79C82.6539 112.95 82.8439 113.073 83.0572 113.16C83.2772 113.247 83.5106 113.29 83.7572 113.29C84.1306 113.29 84.4506 113.21 84.7172 113.05C84.9839 112.883 85.2139 112.683 85.4072 112.45C85.5006 112.703 85.6639 112.907 85.8972 113.06C86.1372 113.213 86.4406 113.29 86.8072 113.29C87.0339 113.29 87.2606 113.243 87.4872 113.15C87.7139 113.05 87.9139 112.9 88.0872 112.7C88.2606 112.5 88.4006 112.247 88.5072 111.94C88.6206 111.633 88.6772 111.267 88.6772 110.84ZM85.5472 110.87C85.5472 111.103 85.5006 111.33 85.4072 111.55C85.3206 111.763 85.2006 111.953 85.0472 112.12C84.9006 112.287 84.7272 112.42 84.5272 112.52C84.3272 112.62 84.1206 112.67 83.9072 112.67C83.5472 112.67 83.2539 112.563 83.0272 112.35C82.8006 112.13 82.6872 111.82 82.6872 111.42C82.6872 111.16 82.7339 110.92 82.8272 110.7C82.9206 110.48 83.0406 110.29 83.1872 110.13C83.3406 109.963 83.5139 109.833 83.7072 109.74C83.9072 109.647 84.1139 109.6 84.3272 109.6C84.5006 109.6 84.6606 109.633 84.8072 109.7C84.9606 109.76 85.0906 109.847 85.1972 109.96C85.3106 110.073 85.3972 110.21 85.4572 110.37C85.5172 110.523 85.5472 110.69 85.5472 110.87ZM95.1419 111.41C95.1419 111.043 95.0752 110.697 94.9419 110.37C94.8086 110.043 94.6219 109.76 94.3819 109.52C94.1419 109.273 93.8552 109.08 93.5219 108.94C93.1952 108.793 92.8386 108.72 92.4519 108.72C92.0586 108.72 91.6952 108.793 91.3619 108.94C91.0352 109.08 90.7519 109.273 90.5119 109.52C90.2719 109.767 90.0852 110.057 89.9519 110.39C89.8186 110.717 89.7519 111.063 89.7519 111.43C89.7519 111.797 89.8186 112.143 89.9519 112.47C90.0852 112.797 90.2719 113.083 90.5119 113.33C90.7519 113.57 91.0352 113.763 91.3619 113.91C91.6886 114.05 92.0452 114.12 92.4319 114.12C92.8186 114.12 93.1786 114.05 93.5119 113.91C93.8452 113.763 94.1319 113.567 94.3719 113.32C94.6119 113.073 94.7986 112.787 94.9319 112.46C95.0719 112.127 95.1419 111.777 95.1419 111.41ZM94.3519 111.43C94.3519 111.71 94.3052 111.973 94.2119 112.22C94.1186 112.46 93.9886 112.67 93.8219 112.85C93.6552 113.03 93.4552 113.173 93.2219 113.28C92.9886 113.38 92.7319 113.43 92.4519 113.43C92.1786 113.43 91.9252 113.377 91.6919 113.27C91.4586 113.163 91.2552 113.02 91.0819 112.84C90.9152 112.66 90.7819 112.447 90.6819 112.2C90.5886 111.953 90.5419 111.69 90.5419 111.41C90.5419 111.13 90.5886 110.87 90.6819 110.63C90.7752 110.383 90.9019 110.17 91.0619 109.99C91.2286 109.803 91.4286 109.66 91.6619 109.56C91.8952 109.453 92.1519 109.4 92.4319 109.4C92.7052 109.4 92.9586 109.453 93.1919 109.56C93.4252 109.667 93.6286 109.813 93.8019 110C93.9752 110.18 94.1086 110.393 94.2019 110.64C94.3019 110.887 94.3519 111.15 94.3519 111.43ZM100.207 111.79C100.207 112.03 100.167 112.25 100.087 112.45C100.007 112.65 99.8968 112.823 99.7568 112.97C99.6234 113.11 99.4601 113.22 99.2668 113.3C99.0801 113.373 98.8768 113.41 98.6568 113.41C98.1968 113.41 97.8434 113.27 97.5968 112.99C97.3501 112.71 97.2268 112.33 97.2268 111.85V108.83H96.4568V112.04C96.4568 112.347 96.5001 112.627 96.5868 112.88C96.6801 113.133 96.8101 113.353 96.9768 113.54C97.1501 113.72 97.3568 113.86 97.5968 113.96C97.8434 114.06 98.1234 114.11 98.4368 114.11C98.8834 114.11 99.2468 114.013 99.5268 113.82C99.8068 113.62 100.033 113.38 100.207 113.1V114H100.967V108.83H100.207V111.79ZM103.739 109.51H105.379V108.83H103.739V107.27H102.969V108.83H102.249V109.51H102.969V112.63C102.969 112.89 103.006 113.113 103.079 113.3C103.152 113.487 103.252 113.64 103.379 113.76C103.512 113.873 103.669 113.957 103.849 114.01C104.029 114.063 104.222 114.09 104.429 114.09C104.616 114.09 104.782 114.07 104.929 114.03C105.082 113.997 105.226 113.943 105.359 113.87V113.21C105.226 113.277 105.099 113.323 104.979 113.35C104.866 113.377 104.742 113.39 104.609 113.39C104.349 113.39 104.139 113.327 103.979 113.2C103.819 113.073 103.739 112.85 103.739 112.53V109.51ZM107.582 114V106.7H106.812V114H107.582ZM114.439 111.41C114.439 111.043 114.372 110.697 114.239 110.37C114.105 110.043 113.919 109.76 113.679 109.52C113.439 109.273 113.152 109.08 112.819 108.94C112.492 108.793 112.135 108.72 111.749 108.72C111.355 108.72 110.992 108.793 110.659 108.94C110.332 109.08 110.049 109.273 109.809 109.52C109.569 109.767 109.382 110.057 109.249 110.39C109.115 110.717 109.049 111.063 109.049 111.43C109.049 111.797 109.115 112.143 109.249 112.47C109.382 112.797 109.569 113.083 109.809 113.33C110.049 113.57 110.332 113.763 110.659 113.91C110.985 114.05 111.342 114.12 111.729 114.12C112.115 114.12 112.475 114.05 112.809 113.91C113.142 113.763 113.429 113.567 113.669 113.32C113.909 113.073 114.095 112.787 114.229 112.46C114.369 112.127 114.439 111.777 114.439 111.41ZM113.649 111.43C113.649 111.71 113.602 111.973 113.509 112.22C113.415 112.46 113.285 112.67 113.119 112.85C112.952 113.03 112.752 113.173 112.519 113.28C112.285 113.38 112.029 113.43 111.749 113.43C111.475 113.43 111.222 113.377 110.989 113.27C110.755 113.163 110.552 113.02 110.379 112.84C110.212 112.66 110.079 112.447 109.979 112.2C109.885 111.953 109.839 111.69 109.839 111.41C109.839 111.13 109.885 110.87 109.979 110.63C110.072 110.383 110.199 110.17 110.359 109.99C110.525 109.803 110.725 109.66 110.959 109.56C111.192 109.453 111.449 109.4 111.729 109.4C112.002 109.4 112.255 109.453 112.489 109.56C112.722 109.667 112.925 109.813 113.099 110C113.272 110.18 113.405 110.393 113.499 110.64C113.599 110.887 113.649 111.15 113.649 111.43ZM120.904 111.41C120.904 111.043 120.837 110.697 120.704 110.37C120.57 110.043 120.384 109.76 120.144 109.52C119.904 109.273 119.617 109.08 119.284 108.94C118.957 108.793 118.6 108.72 118.214 108.72C117.82 108.72 117.457 108.793 117.124 108.94C116.797 109.08 116.514 109.273 116.274 109.52C116.034 109.767 115.847 110.057 115.714 110.39C115.58 110.717 115.514 111.063 115.514 111.43C115.514 111.797 115.58 112.143 115.714 112.47C115.847 112.797 116.034 113.083 116.274 113.33C116.514 113.57 116.797 113.763 117.124 113.91C117.45 114.05 117.807 114.12 118.194 114.12C118.58 114.12 118.94 114.05 119.274 113.91C119.607 113.763 119.894 113.567 120.134 113.32C120.374 113.073 120.56 112.787 120.694 112.46C120.834 112.127 120.904 111.777 120.904 111.41ZM120.114 111.43C120.114 111.71 120.067 111.973 119.974 112.22C119.88 112.46 119.75 112.67 119.584 112.85C119.417 113.03 119.217 113.173 118.984 113.28C118.75 113.38 118.494 113.43 118.214 113.43C117.94 113.43 117.687 113.377 117.454 113.27C117.22 113.163 117.017 113.02 116.844 112.84C116.677 112.66 116.544 112.447 116.444 112.2C116.35 111.953 116.304 111.69 116.304 111.41C116.304 111.13 116.35 110.87 116.444 110.63C116.537 110.383 116.664 110.17 116.824 109.99C116.99 109.803 117.19 109.66 117.424 109.56C117.657 109.453 117.914 109.4 118.194 109.4C118.467 109.4 118.72 109.453 118.954 109.56C119.187 109.667 119.39 109.813 119.564 110C119.737 110.18 119.87 110.393 119.964 110.64C120.064 110.887 120.114 111.15 120.114 111.43ZM124.648 111.05L126.818 108.83H125.858L123.068 111.74V106.7H122.298V114H123.068V112.65L124.118 111.59L125.968 114H126.888L124.648 111.05ZM128.822 114V112.95H127.902V114H128.822ZM134.688 113.12L134.198 112.66C133.991 112.88 133.758 113.063 133.498 113.21C133.244 113.357 132.951 113.43 132.618 113.43C132.344 113.43 132.091 113.38 131.858 113.28C131.631 113.173 131.431 113.03 131.258 112.85C131.091 112.663 130.958 112.447 130.858 112.2C130.764 111.953 130.718 111.69 130.718 111.41C130.718 111.13 130.764 110.87 130.858 110.63C130.951 110.383 131.081 110.17 131.248 109.99C131.414 109.803 131.611 109.66 131.838 109.56C132.064 109.453 132.308 109.4 132.568 109.4C132.921 109.4 133.218 109.477 133.458 109.63C133.704 109.783 133.931 109.967 134.138 110.18L134.648 109.64C134.528 109.513 134.398 109.393 134.258 109.28C134.118 109.167 133.964 109.07 133.798 108.99C133.631 108.903 133.448 108.837 133.248 108.79C133.048 108.743 132.824 108.72 132.578 108.72C132.198 108.72 131.844 108.793 131.518 108.94C131.198 109.08 130.918 109.273 130.678 109.52C130.444 109.767 130.261 110.057 130.128 110.39C129.994 110.717 129.928 111.063 129.928 111.43C129.928 111.797 129.994 112.143 130.128 112.47C130.261 112.797 130.444 113.083 130.678 113.33C130.918 113.57 131.198 113.763 131.518 113.91C131.844 114.05 132.198 114.12 132.578 114.12C133.064 114.12 133.471 114.027 133.798 113.84C134.131 113.653 134.428 113.413 134.688 113.12ZM140.884 111.41C140.884 111.043 140.817 110.697 140.684 110.37C140.551 110.043 140.364 109.76 140.124 109.52C139.884 109.273 139.597 109.08 139.264 108.94C138.937 108.793 138.581 108.72 138.194 108.72C137.801 108.72 137.437 108.793 137.104 108.94C136.777 109.08 136.494 109.273 136.254 109.52C136.014 109.767 135.827 110.057 135.694 110.39C135.561 110.717 135.494 111.063 135.494 111.43C135.494 111.797 135.561 112.143 135.694 112.47C135.827 112.797 136.014 113.083 136.254 113.33C136.494 113.57 136.777 113.763 137.104 113.91C137.431 114.05 137.787 114.12 138.174 114.12C138.561 114.12 138.921 114.05 139.254 113.91C139.587 113.763 139.874 113.567 140.114 113.32C140.354 113.073 140.541 112.787 140.674 112.46C140.814 112.127 140.884 111.777 140.884 111.41ZM140.094 111.43C140.094 111.71 140.047 111.973 139.954 112.22C139.861 112.46 139.731 112.67 139.564 112.85C139.397 113.03 139.197 113.173 138.964 113.28C138.731 113.38 138.474 113.43 138.194 113.43C137.921 113.43 137.667 113.377 137.434 113.27C137.201 113.163 136.997 113.02 136.824 112.84C136.657 112.66 136.524 112.447 136.424 112.2C136.331 111.953 136.284 111.69 136.284 111.41C136.284 111.13 136.331 110.87 136.424 110.63C136.517 110.383 136.644 110.17 136.804 109.99C136.971 109.803 137.171 109.66 137.404 109.56C137.637 109.453 137.894 109.4 138.174 109.4C138.447 109.4 138.701 109.453 138.934 109.56C139.167 109.667 139.371 109.813 139.544 110C139.717 110.18 139.851 110.393 139.944 110.64C140.044 110.887 140.094 111.15 140.094 111.43ZM146.379 109.75C146.239 109.457 146.032 109.213 145.759 109.02C145.486 108.82 145.139 108.72 144.719 108.72C144.499 108.72 144.306 108.747 144.139 108.8C143.972 108.853 143.822 108.927 143.689 109.02C143.556 109.107 143.436 109.21 143.329 109.33C143.229 109.45 143.136 109.573 143.049 109.7V108.83H142.279V114H143.049V111.05C143.049 110.81 143.086 110.593 143.159 110.4C143.232 110.2 143.332 110.027 143.459 109.88C143.592 109.733 143.746 109.62 143.919 109.54C144.092 109.46 144.282 109.42 144.489 109.42C144.902 109.42 145.226 109.557 145.459 109.83C145.699 110.097 145.819 110.473 145.819 110.96V114H146.579V111.02C146.579 110.767 146.616 110.54 146.689 110.34C146.769 110.14 146.872 109.973 146.999 109.84C147.132 109.7 147.286 109.597 147.459 109.53C147.632 109.457 147.816 109.42 148.009 109.42C148.429 109.42 148.756 109.557 148.989 109.83C149.229 110.097 149.349 110.48 149.349 110.98V114H150.119V110.8C150.119 110.153 149.949 109.647 149.609 109.28C149.269 108.907 148.799 108.72 148.199 108.72C147.972 108.72 147.766 108.747 147.579 108.8C147.399 108.853 147.236 108.927 147.089 109.02C146.942 109.113 146.809 109.223 146.689 109.35C146.576 109.477 146.472 109.61 146.379 109.75Z" fill="#666666"/>
<circle cx="50.5" cy="63.5" r="13.5" fill="#7DB7B4"/>
<mask id="path-4-inside-1_22_135" fill="white">
<path fill-rule="evenodd" clip-rule="evenodd" d="M80.5 73C100.658 73 117 56.6584 117 36.5C117 16.3416 100.658 0 80.5 0C60.3416 0 44 16.3416 44 36.5C44 40.296 44.5795 43.9567 45.6548 47.3983C46.9975 47.0496 48.406 46.864 49.8579 46.864C59.0661 46.864 66.5307 54.3287 66.5307 63.5369C66.5307 65.7201 66.1111 67.8053 65.3481 69.7163C69.9633 71.8249 75.0944 73 80.5 73Z"/>
</mask>
<path fill-rule="evenodd" clip-rule="evenodd" d="M80.5 73C100.658 73 117 56.6584 117 36.5C117 16.3416 100.658 0 80.5 0C60.3416 0 44 16.3416 44 36.5C44 40.296 44.5795 43.9567 45.6548 47.3983C46.9975 47.0496 48.406 46.864 49.8579 46.864C59.0661 46.864 66.5307 54.3287 66.5307 63.5369C66.5307 65.7201 66.1111 67.8053 65.3481 69.7163C69.9633 71.8249 75.0944 73 80.5 73Z" fill="#FEFFFF"/>
<path d="M45.6548 47.3983L43.7458 47.9948C44.0639 49.0129 45.1251 49.6022 46.1575 49.3341L45.6548 47.3983ZM65.3481 69.7163L63.4907 68.9746C63.0951 69.9653 63.5467 71.0921 64.517 71.5354L65.3481 69.7163ZM115 36.5C115 55.5538 99.5538 71 80.5 71V75C101.763 75 119 57.763 119 36.5H115ZM80.5 2C99.5538 2 115 17.4462 115 36.5H119C119 15.237 101.763 -2 80.5 -2V2ZM46 36.5C46 17.4462 61.4462 2 80.5 2V-2C59.237 -2 42 15.237 42 36.5H46ZM47.5638 46.8019C46.5481 43.5511 46 40.0914 46 36.5H42C42 40.5006 42.6109 44.3623 43.7458 47.9948L47.5638 46.8019ZM46.1575 49.3341C47.3375 49.0277 48.5771 48.864 49.8579 48.864V44.864C48.235 44.864 46.6576 45.0716 45.1521 45.4625L46.1575 49.3341ZM49.8579 48.864C57.9615 48.864 64.5307 55.4333 64.5307 63.5369H68.5307C68.5307 53.2242 60.1706 44.864 49.8579 44.864V48.864ZM64.5307 63.5369C64.5307 65.4619 64.1611 67.2957 63.4907 68.9746L67.2055 70.4579C68.0611 68.3149 68.5307 65.9783 68.5307 63.5369H64.5307ZM80.5 71C75.3869 71 70.5388 69.889 66.1793 67.8971L64.517 71.5354C69.3878 73.7608 74.8019 75 80.5 75V71Z" fill="#7DB7B4" mask="url(#path-4-inside-1_22_135)"/>
<path d="M72.1314 36.025L79.4064 28.5H75.6314L67.3064 37.3V28.5H64.2314V46H67.3064V40.925L70.0314 38.125L76.0064 46H79.7314L72.1314 36.025ZM98.5533 37.225C98.5533 35.9917 98.3283 34.825 97.8783 33.725C97.4283 32.625 96.8033 31.6667 96.0033 30.85C95.2033 30.0333 94.245 29.3917 93.1283 28.925C92.0117 28.4417 90.7783 28.2 89.4283 28.2C88.0783 28.2 86.845 28.4417 85.7283 28.925C84.6117 29.4083 83.645 30.0667 82.8283 30.9C82.0117 31.7167 81.3783 32.675 80.9283 33.775C80.4783 34.875 80.2533 36.0417 80.2533 37.275C80.2533 38.5083 80.4783 39.675 80.9283 40.775C81.3783 41.875 82.0033 42.8333 82.8033 43.65C83.6033 44.4667 84.5617 45.1167 85.6783 45.6C86.795 46.0667 88.0283 46.3 89.3783 46.3C90.7283 46.3 91.9617 46.0583 93.0783 45.575C94.195 45.0917 95.1617 44.4417 95.9783 43.625C96.795 42.7917 97.4283 41.825 97.8783 40.725C98.3283 39.625 98.5533 38.4583 98.5533 37.225ZM95.3283 37.275C95.3283 38.125 95.1783 38.9333 94.8783 39.7C94.595 40.45 94.195 41.1083 93.6783 41.675C93.1617 42.225 92.5367 42.6667 91.8033 43C91.0867 43.3167 90.295 43.475 89.4283 43.475C88.5617 43.475 87.7617 43.3083 87.0283 42.975C86.295 42.6417 85.6617 42.1917 85.1283 41.625C84.6117 41.0583 84.2033 40.4 83.9033 39.65C83.62 38.8833 83.4783 38.075 83.4783 37.225C83.4783 36.375 83.62 35.575 83.9033 34.825C84.2033 34.0583 84.6117 33.4 85.1283 32.85C85.645 32.2833 86.2617 31.8417 86.9783 31.525C87.7117 31.1917 88.5117 31.025 89.3783 31.025C90.245 31.025 91.045 31.1917 91.7783 31.525C92.5117 31.8583 93.1367 32.3083 93.6533 32.875C94.1867 33.4417 94.595 34.1083 94.8783 34.875C95.1783 35.625 95.3283 36.425 95.3283 37.275Z" fill="#666666"/>
<path fill-rule="evenodd" clip-rule="evenodd" d="M51.75 55.2558C51.75 54.5609 51.1917 54 50.5 54C49.8083 54 49.25 54.5609 49.25 55.2558V56.2353C46.6333 56.8046 44.6667 59.1488 44.6667 61.9534V66.9765L43 68.6509V69.4881H58V68.6509L56.3333 66.9765V61.9534C56.3333 59.1488 54.3667 56.8046 51.75 56.2353V55.2558ZM50.4998 57.7672C48.1998 57.7672 46.3332 59.6425 46.3332 61.9532V67.8136H54.6665V61.9532C54.6665 59.6425 52.7998 57.7672 50.4998 57.7672ZM52.1587 70.334C52.1587 71.2549 51.417 72 50.5004 72C49.5837 72 48.842 71.2549 48.842 70.334H52.1587Z" fill="white"/>
<rect x="35" y="58" width="9" height="9" rx="4.5" transform="rotate(-90 35 58)" fill="url(#paint0_linear_22_135)"/>
<defs>
<linearGradient id="paint0_linear_22_135" x1="35.4021" y1="65.29" x2="41.1469" y2="67.1904" gradientUnits="userSpaceOnUse">
<stop stop-color="#D3228C"/>
<stop offset="1" stop-color="#BB1176"/>
</linearGradient>
</defs>
</svg>
