<svg width="27" height="20" viewBox="0 0 27 20" fill="none" xmlns="http://www.w3.org/2000/svg">
<g clip-path="url(#clip0_22_76)">
<path d="M11.8171 10.3585C11.3809 10.3585 10.9382 10.3585 10.5019 10.3585C10.3522 10.3585 10.2675 10.4301 10.2741 10.5668C10.3001 11.1072 10.3261 11.6476 10.3847 12.1815C10.3912 12.2466 10.5866 12.3247 10.7038 12.3378C11.0163 12.3703 11.0553 12.4224 10.8861 12.6958C10.7884 12.8521 10.6647 12.9953 10.5801 13.1646C10.5345 13.2623 10.528 13.386 10.5345 13.4967C10.541 13.6725 10.4759 13.7636 10.3001 13.7766C10.2155 13.7831 10.1243 13.7831 10.0397 13.7962C9.83784 13.8157 9.71413 13.7311 9.70762 13.5292C9.6946 13.3404 9.59694 13.2883 9.42766 13.3013C8.95889 13.3534 8.49012 13.399 8.02786 13.4641C7.97577 13.4706 7.89113 13.5878 7.89764 13.6464C7.91717 13.8027 7.94973 13.9459 7.76091 14.0175C7.507 14.1152 7.19448 14.0436 7.09682 13.8743C6.94056 13.5943 6.88848 13.5748 6.58247 13.6464C6.34809 13.6985 6.10719 13.7311 5.8728 13.7896C5.76863 13.8157 5.67748 13.8938 5.57331 13.9394C5.50169 13.972 5.42356 14.024 5.35194 14.024C4.70087 14.011 4.62925 13.9264 4.42091 13.3144C4.14746 12.5005 3.94563 11.6672 3.88052 10.8142C3.83494 10.1827 3.84146 9.54465 3.90656 8.91311C3.97818 8.26204 4.11491 7.61097 4.29721 6.97943C4.44695 6.44555 4.68785 5.92469 4.93526 5.41034C5.35846 4.5379 5.94442 3.76964 6.61503 3.07299C7.67628 1.95965 8.91983 1.12628 10.3717 0.605422C11.8301 0.0845632 13.3146 -0.0977372 14.8576 0.0520096C16.0035 0.162692 17.0973 0.462186 18.126 0.95049C19.5388 1.61458 20.7238 2.57817 21.6874 3.8087C22.2929 4.57697 22.7616 5.42336 23.1327 6.32184C23.315 6.77759 23.4518 7.25939 23.5429 7.73467C23.6731 8.4183 23.7773 9.10843 23.8164 9.79857C23.8619 10.6059 23.7382 11.4002 23.5625 12.1945C23.315 13.3013 22.8853 14.33 22.2929 15.2806C21.5246 16.5046 20.5285 17.5268 19.324 18.3146C18.432 18.9006 17.4554 19.3238 16.4137 19.6037C15.1115 19.9553 13.7899 20.0269 12.4747 19.8511C10.7689 19.6233 9.21281 18.9982 7.82602 17.9435C7.22052 17.4812 6.67362 16.9604 6.17881 16.3744C6.12672 16.3093 6.10719 16.2116 6.06812 16.1335C6.15276 16.1205 6.24391 16.0944 6.32855 16.0879C6.45877 16.0814 6.59549 16.0944 6.72571 16.0944C6.93405 16.0879 7.10333 16.1726 7.24006 16.3288C7.35725 16.459 7.48095 16.5762 7.61117 16.6869C7.76743 16.8237 8.07343 16.8236 8.21016 16.6674C8.25573 16.6153 8.24922 16.4916 8.22318 16.4135C8.15807 16.1921 8.19713 16.114 8.42501 16.114C8.65288 16.114 8.88076 16.0944 9.10864 16.2116C9.25187 16.2833 9.46673 16.2051 9.64903 16.1856C10.0201 16.14 10.3847 16.0879 10.7493 16.0424C10.7884 16.0359 10.847 16.0684 10.873 16.1075C11.127 16.4395 11.433 16.752 11.6218 17.1231C11.8952 17.657 12.2208 18.1518 12.6505 18.5685C12.7872 18.7053 12.95 18.8159 13.1192 18.9136C13.3341 19.0373 13.4253 18.9787 13.4253 18.7313C13.4318 18.2039 13.4122 17.6766 13.4383 17.1557C13.4448 16.9994 13.5164 16.8171 13.6206 16.6999C13.907 16.3809 14.2261 16.0879 14.5256 15.7819C14.6948 15.6127 14.9032 15.6061 15.118 15.6322C15.4696 15.6778 15.8147 15.7364 16.1663 15.7754C16.5569 15.8145 16.635 15.7494 16.7262 15.3262C16.8564 14.7467 16.9866 14.1673 17.1103 13.5878C17.1819 13.2362 17.1103 13.1516 16.7457 13.1451C16.1598 13.1321 15.5608 13.1581 14.9813 13.0865C14.6428 13.0474 14.3172 12.8716 14.0047 12.7154C13.3992 12.3964 13.4122 12.3833 13.4187 11.6932C13.4253 11.3481 13.4122 11.0031 13.4122 10.658C13.4122 10.4496 13.3211 10.3585 13.1127 10.3585C12.6765 10.365 12.2338 10.3585 11.7976 10.3585C11.8171 10.365 11.8171 10.3585 11.8171 10.3585ZM13.4318 5.59915C13.4318 5.28664 13.4253 4.97412 13.4383 4.66161C13.4448 4.43373 13.3536 4.34909 13.1258 4.32956C12.5398 4.28398 11.9538 4.21888 11.3744 4.14075C11.1725 4.11471 11.0684 4.18632 11.0293 4.36211C10.8535 5.0848 10.6907 5.8075 10.5215 6.53019C10.4889 6.66691 10.5475 6.74504 10.6842 6.75155C11.5176 6.7841 12.3575 6.81666 13.1909 6.84921C13.3536 6.85572 13.4383 6.7841 13.4318 6.60831C13.4253 6.26976 13.4318 5.93771 13.4318 5.59915ZM15.5738 6.85572C16.0686 6.82317 16.4788 6.79713 16.8824 6.77759C17.0517 6.76457 17.195 6.69947 17.1494 6.50414C16.9801 5.77494 16.7978 5.04574 16.6155 4.32305C16.5764 4.16679 16.4658 4.12773 16.3095 4.14075C15.704 4.20586 15.092 4.26445 14.4865 4.32305C14.3302 4.33607 14.2586 4.4142 14.2586 4.56395C14.2521 5.24757 14.2521 5.92469 14.2521 6.60831C14.2521 6.77759 14.3302 6.86223 14.5125 6.85572C14.8967 6.84921 15.2808 6.85572 15.5738 6.85572ZM15.7431 12.2726C15.7431 12.2987 15.7431 12.3182 15.7431 12.3443C16.1532 12.3443 16.5569 12.3508 16.9671 12.3443C17.1299 12.3443 17.3122 12.3443 17.3252 12.1034C17.3447 11.6281 17.3642 11.1463 17.3903 10.671C17.3968 10.4562 17.2926 10.352 17.0778 10.352C16.2118 10.3585 15.3524 10.365 14.4865 10.365C14.3302 10.365 14.2391 10.4431 14.2391 10.5864C14.2326 11.0617 14.2391 11.5434 14.2521 12.0187C14.2586 12.1815 14.3368 12.2726 14.5191 12.2726C14.9292 12.2661 15.3329 12.2726 15.7431 12.2726ZM11.8627 9.55768C12.2924 9.55768 12.7221 9.55768 13.1518 9.55768C13.3211 9.55768 13.4448 9.52512 13.4383 9.31678C13.4318 8.86103 13.4253 8.40528 13.4383 7.95604C13.4448 7.74769 13.3536 7.68259 13.1583 7.67607C12.3119 7.65003 11.4655 7.61748 10.6256 7.59143C10.4564 7.58492 10.3522 7.65654 10.3457 7.83233C10.3196 8.32715 10.2936 8.81545 10.2675 9.31027C10.261 9.48606 10.3457 9.56419 10.528 9.56419C10.9707 9.55116 11.4134 9.55768 11.8627 9.55768ZM15.9709 9.53163C15.9709 9.53163 15.9709 9.53814 15.9709 9.53163C16.3486 9.53814 16.7262 9.53814 17.0973 9.53814C17.3056 9.53814 17.4098 9.46001 17.3968 9.22563C17.3642 8.7829 17.3447 8.34017 17.3317 7.89093C17.3252 7.66956 17.221 7.58492 17.0062 7.59143C16.1728 7.62399 15.3459 7.65003 14.5125 7.66956C14.3107 7.67607 14.2326 7.76722 14.2391 7.96255C14.2456 8.41179 14.2521 8.85452 14.2521 9.30376C14.2521 9.47955 14.3237 9.53814 14.493 9.53814C14.9813 9.53163 15.4761 9.53163 15.9709 9.53163ZM9.36906 6.65389C9.57741 6.69946 9.66205 6.6018 9.70111 6.39997C9.77273 6.00933 9.85737 5.61868 9.94852 5.22804C10.0332 4.86344 10.1243 4.49884 10.222 4.13424C10.261 3.991 10.2155 3.91287 10.0722 3.88032C9.84435 3.82172 9.62298 3.76313 9.40162 3.685C9.2063 3.61989 9.07608 3.69802 8.99144 3.84777C8.75706 4.27096 8.51616 4.69416 8.30782 5.13038C8.14505 5.46894 8.02134 5.82703 7.90415 6.17861C7.85858 6.30882 7.82602 6.4781 8.04739 6.50414C8.48361 6.56274 8.92634 6.60831 9.36906 6.65389ZM18.4255 13.2948C18.2432 13.3209 18.0414 13.2037 17.9828 13.4706C17.807 14.2389 17.6247 15.0072 17.4424 15.7754C17.4033 15.9317 17.4294 16.0489 17.6247 16.0814C17.7614 16.101 17.8981 16.153 18.0283 16.1986C18.419 16.3353 18.5557 16.2898 18.7575 15.9382C18.9594 15.5736 19.1677 15.222 19.337 14.8444C19.5063 14.4668 19.63 14.0761 19.7667 13.6855C19.8188 13.5422 19.7602 13.4641 19.6104 13.4446C19.2003 13.399 18.7966 13.3469 18.4255 13.2948ZM18.9594 6.55623C18.9594 6.56925 18.9594 6.57576 18.9659 6.58878C19.1742 6.56274 19.3826 6.53019 19.5909 6.50414C19.7602 6.48461 19.8058 6.39346 19.7602 6.24371C19.7081 6.07444 19.6495 5.90516 19.5909 5.73588C19.3435 5.03923 19.0245 4.38816 18.6013 3.77615C18.5166 3.65244 18.432 3.63942 18.3018 3.67849C18.0739 3.7501 17.8395 3.82823 17.6051 3.87381C17.4228 3.91287 17.4033 4.00402 17.4359 4.16028C17.6116 4.91553 17.794 5.66426 17.9632 6.4195C18.0088 6.62785 18.1195 6.69295 18.3148 6.6604C18.5297 6.62785 18.7445 6.58878 18.9594 6.55623ZM5.59284 10.3585C5.40403 10.365 5.21522 10.365 5.02641 10.365C4.69436 10.365 4.62274 10.4301 4.68785 10.7556C4.81807 11.4458 4.9613 12.1359 5.10454 12.8261C5.13709 12.9888 5.24126 13.0995 5.42356 13.0604C5.8077 12.9888 6.19183 12.9042 6.57596 12.8326C6.7192 12.8065 6.77128 12.7414 6.75175 12.5852C6.66711 11.9341 6.59549 11.2765 6.53039 10.6254C6.51086 10.4431 6.4197 10.3585 6.2374 10.3585C6.01604 10.3585 5.8077 10.3585 5.59284 10.3585ZM22.0715 10.365C21.8566 10.3715 21.6483 10.378 21.44 10.365C21.2511 10.352 21.173 10.4366 21.147 10.6189C21.0754 11.2635 20.9972 11.908 20.9061 12.5526C20.88 12.7284 20.9386 12.7935 21.1014 12.8196C21.4855 12.8912 21.8632 12.9823 22.2473 13.0604C22.4101 13.093 22.4882 13.0344 22.5273 12.8651C22.6054 12.5266 22.7226 12.188 22.7942 11.8495C22.8788 11.4588 22.9309 11.0682 22.983 10.671C23.009 10.4627 22.9049 10.352 22.677 10.3585C22.4752 10.3715 22.2733 10.365 22.0715 10.365ZM19.2784 10.3585C19.2784 10.3585 19.2784 10.365 19.2784 10.3585C19.0115 10.365 18.7445 10.365 18.4776 10.365C18.3083 10.365 18.2302 10.4496 18.2237 10.6059C18.1911 11.1528 18.1586 11.6997 18.1455 12.2466C18.1455 12.3182 18.2497 12.4549 18.3213 12.468C18.8161 12.5396 19.3175 12.5852 19.8123 12.6438C19.9555 12.6568 20.0532 12.6112 20.0727 12.4484C20.1573 11.8625 20.2615 11.2765 20.3396 10.684C20.3722 10.4366 20.281 10.365 20.0271 10.3585C19.7797 10.3585 19.5323 10.3585 19.2784 10.3585ZM8.35339 10.352C8.35339 10.3585 8.35339 10.3585 8.35339 10.365C8.11249 10.365 7.86509 10.3715 7.62419 10.365C7.42236 10.352 7.33121 10.4431 7.33772 10.6385C7.34423 10.8273 7.34423 11.0161 7.37027 11.1984C7.41585 11.5565 7.48746 11.908 7.53304 12.2661C7.58513 12.6307 7.63721 12.6763 8.00181 12.6307C8.43803 12.5787 8.87425 12.5266 9.31047 12.481C9.47324 12.468 9.53183 12.3964 9.52532 12.2401C9.49277 11.7062 9.46673 11.1723 9.42766 10.645C9.41464 10.4366 9.29745 10.3455 9.08259 10.352C8.8417 10.3585 8.59429 10.352 8.35339 10.352ZM5.5668 9.53163C5.77514 9.53163 5.99 9.53163 6.19834 9.53163C6.46528 9.53163 6.49132 9.48606 6.52388 9.21912C6.58247 8.62664 6.64107 8.03416 6.73873 7.4482C6.77779 7.22683 6.7192 7.13568 6.53039 7.09011C6.16579 7.01198 5.79467 6.94036 5.43007 6.87525C5.26079 6.8427 5.15011 6.92083 5.11105 7.10313C4.97432 7.80629 4.82458 8.50945 4.68785 9.21261C4.64228 9.43397 4.7204 9.51861 4.94177 9.52512C5.1436 9.53814 5.35194 9.53163 5.5668 9.53163ZM22.1236 9.53814V9.54465C22.2798 9.54465 22.4361 9.54465 22.5924 9.54465C22.9895 9.53814 23.0351 9.49257 22.9504 9.10192C22.8137 8.43783 22.6575 7.77374 22.5338 7.10964C22.4947 6.9013 22.384 6.8427 22.2082 6.88177C21.8306 6.95338 21.4595 7.03802 21.0819 7.11615C20.9061 7.14871 20.867 7.25288 20.9126 7.40913C20.9451 7.53284 20.9907 7.65003 21.0037 7.77374C21.0558 8.28157 21.1079 8.78941 21.147 9.29725C21.16 9.46653 21.2381 9.53814 21.3944 9.54465C21.6418 9.54465 21.8827 9.53814 22.1236 9.53814ZM19.2784 9.54465C19.5518 9.54465 19.8253 9.54465 20.0987 9.54465C20.2876 9.54465 20.3722 9.46652 20.3396 9.2712C20.3136 9.12797 20.3071 8.97822 20.2876 8.82847C20.2225 8.39225 20.1573 7.94953 20.0857 7.51331C20.0597 7.35054 19.9685 7.29845 19.7993 7.3245C19.3175 7.38309 18.8357 7.42867 18.3539 7.48726C18.2367 7.50028 18.113 7.52633 18.126 7.69561C18.1586 8.24251 18.1846 8.78941 18.2171 9.33631C18.2237 9.49908 18.3083 9.55768 18.458 9.55768C18.7315 9.54465 19.0049 9.54465 19.2784 9.54465ZM8.36641 9.54465C8.62684 9.53814 8.88076 9.53814 9.14119 9.54465C9.31698 9.54465 9.42115 9.47304 9.43417 9.29073C9.46673 8.75686 9.50579 8.22949 9.51881 7.69561C9.51881 7.6305 9.41464 7.51982 9.34302 7.5068C8.84821 7.43518 8.34688 7.38309 7.85207 7.33101C7.71534 7.31798 7.59164 7.35054 7.56559 7.5068C7.48746 8.10578 7.40934 8.70477 7.33772 9.29725C7.31167 9.49257 7.42887 9.55767 7.61117 9.55116C7.86509 9.53814 8.11249 9.54465 8.36641 9.54465ZM19.7927 3.0795C19.656 3.15763 19.5193 3.22925 19.4021 3.32691C19.3761 3.34644 19.4086 3.47665 19.4412 3.54176C19.9164 4.32956 20.3136 5.14991 20.574 6.03537C20.6587 6.32184 20.7433 6.34789 21.0233 6.27627C21.1991 6.23069 21.3814 6.22418 21.5572 6.19163C21.6743 6.1721 21.785 6.14605 21.8957 6.10699C22.0715 6.04839 22.0715 5.93771 21.9869 5.79447C21.8762 5.60566 21.7785 5.41034 21.6613 5.22153C21.186 4.46628 20.6391 3.77615 19.9685 3.19018C19.923 3.14461 19.8644 3.12507 19.7927 3.0795ZM22.065 13.9524C22.0064 13.9068 21.9478 13.8222 21.8762 13.8092C21.5702 13.7376 21.2642 13.692 20.9582 13.6334C20.7563 13.5943 20.6391 13.679 20.5871 13.8678C20.3396 14.7597 19.9425 15.5931 19.4607 16.3809C19.4151 16.4525 19.4216 16.6088 19.4672 16.6739C19.6235 16.8692 19.8709 16.8692 20.0532 16.6999C20.8475 15.9577 21.492 15.0983 21.9999 14.1347C22.0194 14.0891 22.0324 14.0436 22.065 13.9524ZM7.87811 3.09252C7.79347 3.1381 7.72185 3.15763 7.67628 3.2032C7.47444 3.3855 7.2661 3.5678 7.0838 3.76964C6.53039 4.39467 6.03557 5.07178 5.65795 5.82052C5.57331 5.9898 5.57982 6.0549 5.76863 6.09397C6.10068 6.16559 6.43273 6.25674 6.77128 6.30231C6.84941 6.31533 6.98614 6.21767 7.03822 6.13954C7.10333 6.02886 7.09682 5.87911 7.14891 5.76192C7.48095 5.04574 7.82602 4.33607 8.15807 3.61989C8.20364 3.52223 8.26224 3.35946 8.21667 3.30086C8.15156 3.20971 8.00181 3.16414 7.87811 3.09252ZM13.4318 2.18102C13.4318 1.85548 13.4383 1.52343 13.4318 1.1979C13.4318 1.11977 13.4057 0.989555 13.3601 0.976533C13.282 0.957001 13.1648 0.976533 13.1062 1.02862C12.8198 1.26952 12.5137 1.49739 12.2859 1.78386C11.9994 2.14846 11.778 2.57166 11.5502 2.97533C11.4265 3.19018 11.4851 3.33993 11.6869 3.36597C12.1687 3.41806 12.6505 3.46363 13.1323 3.50921C13.3406 3.52874 13.4318 3.42457 13.4318 3.21622C13.4318 2.87116 13.4318 2.52609 13.4318 2.18102ZM16.2314 16.6739C16.1467 16.6348 16.1142 16.6088 16.0751 16.6088C15.5738 16.5502 15.066 16.5046 14.5646 16.446C14.3302 16.42 14.2586 16.5176 14.2521 16.739C14.2521 17.4031 14.2391 18.0672 14.2391 18.7313C14.2391 19.0113 14.3302 19.0633 14.5646 18.9201C15.0725 18.6141 15.4436 18.1714 15.7366 17.6635C15.9189 17.3445 16.0686 17.0125 16.2314 16.6739ZM14.2586 2.18102C14.2586 2.51958 14.2586 2.85813 14.2586 3.19018C14.2586 3.45712 14.3042 3.51572 14.5711 3.49619C14.9878 3.47014 15.398 3.41155 15.8082 3.37899C16.1728 3.35295 16.2444 3.26831 16.0816 2.92975C15.7105 2.17451 15.2873 1.45182 14.5256 1.00258C14.467 0.970022 14.3693 0.924447 14.3433 0.94398C14.2912 0.983044 14.2586 1.07419 14.2521 1.1393C14.2521 1.49088 14.2586 1.83595 14.2586 2.18102ZM11.2637 18.3862C11.2832 18.3602 11.3093 18.3407 11.3288 18.3146C11.2962 18.243 11.2637 18.1649 11.2246 18.0932C11.0879 17.8458 10.9447 17.6049 10.821 17.351C10.567 16.8302 10.5736 16.8302 10.0266 16.9278C9.96154 16.9408 9.86388 16.9864 9.84435 17.0385C9.82482 17.1036 9.85737 17.2143 9.90295 17.2599C10.1699 17.5268 10.4368 17.7872 10.7233 18.0281C10.8926 18.1714 11.0879 18.269 11.2637 18.3862ZM17.9307 2.85162C17.4359 2.33728 16.9801 1.8685 16.3616 1.60807C16.3486 1.67318 16.3551 1.70574 16.3746 1.73829C16.5569 2.08336 16.7587 2.4154 16.928 2.76698C17.0908 3.10554 17.1689 3.15763 17.527 3.04695C17.6442 3.00137 17.7549 2.93626 17.9307 2.85162ZM16.3225 18.3146C16.3421 18.3341 16.3616 18.3602 16.3811 18.3797C16.5309 18.2886 16.6871 18.2039 16.8173 18.0932C17.1429 17.8198 17.4619 17.5463 17.7614 17.2534C17.8981 17.1166 17.8525 16.9799 17.6898 16.9278C17.1819 16.752 17.0843 16.7911 16.8694 17.2794C16.8564 17.312 16.8304 17.351 16.8108 17.3836C16.6546 17.6961 16.4918 18.0086 16.3225 18.3146ZM11.3028 1.61458C11.2832 1.60156 11.2637 1.58203 11.2376 1.56901C10.7168 1.89455 10.235 2.27217 9.84435 2.75396C9.82482 2.78001 9.82482 2.87116 9.83784 2.87767C10.0332 2.9558 10.222 3.05346 10.4238 3.07299C10.5084 3.0795 10.6452 2.94277 10.7038 2.8386C10.9056 2.48702 11.0814 2.11591 11.2702 1.75782C11.2897 1.71876 11.2897 1.66667 11.3028 1.61458ZM19.031 2.51307C18.8878 2.2917 18.7185 2.16149 18.4515 2.12242C18.6403 2.50655 18.7706 2.5977 19.031 2.51307ZM9.15421 2.168C9.14119 2.14846 9.12166 2.12893 9.10864 2.11591C8.94587 2.22659 8.78961 2.34379 8.60731 2.474C8.87425 2.63677 9.03051 2.52609 9.15421 2.168ZM18.4646 17.8523C18.6859 17.7156 18.8552 17.6114 19.057 17.4943C18.7771 17.3315 18.6208 17.4291 18.4646 17.8523ZM9.0891 17.7937C9.11515 17.7612 9.1477 17.7286 9.17374 17.7026C9.07608 17.6049 8.99144 17.4877 8.88076 17.4161C8.82867 17.3836 8.7245 17.4291 8.64637 17.4357C8.63986 17.4617 8.63986 17.4943 8.63335 17.5203C8.78961 17.6114 8.93936 17.7026 9.0891 17.7937Z" fill="#7DB7B4"/>
<path d="M1.9533 9.4144C1.72542 9.66831 1.49104 9.91572 1.26316 10.1696C0.866008 10.6254 0.546982 11.1202 0.403746 11.7127C0.26051 12.3117 0.455832 12.8065 0.879029 13.2362C1.28269 13.6464 1.78402 13.9003 2.3179 14.0826C3.98465 14.6425 5.70348 14.6686 7.43533 14.5969C8.33381 14.5579 9.2323 14.4797 10.1308 14.3756C10.7037 14.3105 11.2767 14.1868 11.8431 14.0826C11.9017 14.0696 11.9473 14.011 12.0059 13.9784C11.9603 13.9198 11.9342 13.8417 11.8757 13.8026C11.6934 13.6854 11.498 13.5943 11.3092 13.4836C11.179 13.4055 11.1855 13.3013 11.2571 13.1841C11.3939 12.9432 11.5436 12.7023 11.6608 12.4419C11.7585 12.227 11.9017 12.2205 12.084 12.2986C12.2337 12.3703 12.377 12.4549 12.5202 12.533C13.3796 13.0018 14.239 13.4641 15.0985 13.9328C15.3394 14.0631 15.3589 14.1542 15.1571 14.356C14.3367 15.1894 13.5164 16.0163 12.696 16.8431C12.5658 16.9734 12.4486 16.9929 12.3119 16.8562C12.1035 16.6413 11.8952 16.433 11.6868 16.2181C11.5436 16.0749 11.5241 15.9447 11.7064 15.8079C11.791 15.7428 11.8691 15.6647 11.9473 15.5801C11.9798 15.5475 11.9928 15.4889 12.0189 15.4498C11.9668 15.4238 11.9147 15.3782 11.8626 15.3782C11.7454 15.3717 11.6282 15.3978 11.5111 15.4043C10.4303 15.4694 9.34949 15.567 8.26871 15.5801C6.81681 15.5996 5.36492 15.5019 3.93907 15.1959C2.94944 14.9811 1.97283 14.6946 1.13295 14.0956C0.247488 13.4641 -0.214774 12.6307 0.123784 11.5239C0.306085 10.9314 0.683707 10.4561 1.1069 10.0264C1.33478 9.79202 1.60172 9.5967 1.84913 9.38184C1.86866 9.36882 1.90772 9.36882 1.93377 9.36882C1.93377 9.38835 1.94679 9.40137 1.9533 9.4144Z" fill="#7DB7B4"/>
<path d="M25.2487 9.44046C25.5222 9.07586 25.8086 8.71777 26.0625 8.33363C26.323 7.94299 26.4923 7.51979 26.4857 7.038C26.4792 6.43901 26.1732 6.0093 25.711 5.69679C25.0924 5.27359 24.3893 5.02618 23.6536 4.94154C23.1327 4.88295 22.7486 4.70065 22.5272 4.21234C22.4686 4.08864 22.3644 3.98447 22.2928 3.86076C22.2538 3.78914 22.2342 3.69799 22.2082 3.61986C22.3059 3.60033 22.4035 3.54825 22.4947 3.56127C22.7942 3.61986 23.0937 3.68497 23.3801 3.78263C23.927 3.96493 24.4804 4.14723 25.0078 4.38162C25.6914 4.68111 26.2839 5.11082 26.6876 5.76189C27.0977 6.42599 27.0977 7.11613 26.7657 7.79975C26.4662 8.43129 26.0039 8.93913 25.457 9.37535C25.405 9.42093 25.3333 9.44046 25.2682 9.47301C25.2617 9.4665 25.2552 9.45348 25.2487 9.44046Z" fill="#7DB7B4"/>
</g>
<defs>
<clipPath id="clip0_22_76">
<rect width="27" height="19.9554" fill="white"/>
</clipPath>
</defs>
</svg>
