<svg width="47" height="47" viewBox="0 0 47 47" fill="none" xmlns="http://www.w3.org/2000/svg">
<path d="M40.5023 0.0368371C40.7223 0.0122791 40.8935 0.12279 41.0646 0.24558C41.1869 0.343812 41.2969 0.442044 41.4069 0.552555C43.1062 2.25934 44.7933 3.95384 46.4804 5.6729C46.676 5.86937 46.8227 6.12722 46.9817 6.36053C47.0061 6.39736 47.0061 6.48332 46.9817 6.52015C46.8105 6.9008 46.5782 7.23234 46.2726 7.53931C43.3018 10.5108 40.3311 13.5069 37.3604 16.4907C29.1083 24.7913 20.8318 33.1042 12.5675 41.4048C11.6628 42.3135 10.7459 43.2221 9.86567 44.1553C9.42556 44.6096 8.93655 44.8921 8.32529 45.0517C7.22501 45.3218 6.14918 45.6411 5.06113 45.9358C3.81415 46.2796 2.56717 46.5988 1.33242 46.9549C0.855632 47.09 0.513323 46.9058 0.18324 46.6111C-0.0490403 46.3901 -0.0245897 46.12 0.0609874 45.8375C0.305493 45.0517 0.549999 44.2658 0.794505 43.48C1.02679 42.7064 1.25907 41.9205 1.49135 41.147C1.65028 40.619 1.82143 40.091 1.99258 39.563C2.15151 39.0718 2.28599 38.5806 2.45714 38.1018C2.5305 37.9053 2.66497 37.7457 2.775 37.5615C2.78723 37.5369 2.8239 37.5124 2.83613 37.5001C15.0981 25.1597 27.3723 12.8193 39.6465 0.49116C39.7565 0.380649 39.8665 0.270138 40.001 0.196464C40.1477 0.110511 40.3189 0.061395 40.4778 0C40.49 0.012279 40.49 0.0245581 40.5023 0.0368371ZM4.62102 38.2982C4.64547 38.3228 4.68215 38.3596 4.71882 38.4087C5.79465 39.5016 6.87048 40.5821 7.95853 41.675C8.19081 41.9083 8.41086 42.1416 8.64314 42.3626C8.78985 42.4977 8.961 42.4977 9.1077 42.3626C9.16883 42.3135 9.21773 42.2643 9.26663 42.2152C10.4647 41.0119 11.6506 39.8085 12.8486 38.6052C20.0493 31.3729 27.25 24.1405 34.4507 16.9205C34.5852 16.7854 34.7319 16.6749 34.8664 16.5644C33.4238 15.1155 31.9935 13.6788 30.5631 12.2422C21.932 20.9112 13.2765 29.6047 4.62102 38.2982ZM40.4778 2.27162C39.622 3.14343 38.7418 4.01524 37.886 4.88705C39.2797 6.28685 40.6856 7.69894 42.0793 9.09875C42.9473 8.23921 43.8153 7.35513 44.6833 6.4956C43.2774 5.08351 41.8715 3.67142 40.4778 2.27162ZM3.65522 40.1032C3.19066 41.6381 2.70165 43.2221 2.21264 44.8307C3.86305 44.3763 5.47679 43.9466 7.12721 43.4922C5.94135 42.3503 4.79218 41.2329 3.65522 40.1032ZM33.8272 8.87772C34.3407 9.39344 34.8297 9.89688 35.3187 10.388C36.1134 11.1862 36.908 11.972 37.6904 12.7824C38.0816 13.1877 38.1794 13.1999 38.5584 12.7824C38.7907 12.5246 38.7907 12.4018 38.534 12.1562C37.4459 11.0634 36.3579 9.97056 35.2576 8.87772C35.0865 8.70582 34.9031 8.53391 34.7197 8.37428C34.5485 8.22694 34.4141 8.23921 34.2674 8.39884C34.1084 8.55847 33.9739 8.7181 33.8272 8.87772ZM35.8566 6.79029C37.3237 8.25149 38.7418 9.67586 40.1722 11.1002C40.3556 10.9283 40.5634 10.7441 40.759 10.5599C40.759 10.5477 40.7468 10.5354 40.7468 10.5354C39.3531 9.13558 37.9716 7.73577 36.5779 6.33597C36.5046 6.26229 36.4435 6.27457 36.3823 6.33597C36.199 6.4956 36.0156 6.64294 35.8566 6.79029ZM36.2112 15.0541C36.3457 14.9313 36.4924 14.7962 36.6513 14.6611C36.798 14.5506 36.7858 14.477 36.6635 14.3419C35.331 13.0157 33.9984 11.6773 32.6658 10.3389C32.6169 10.2898 32.5803 10.253 32.5191 10.2039C32.3113 10.388 32.1157 10.5722 31.9079 10.7687C33.3505 12.2053 34.7808 13.6174 36.2112 15.0541Z" fill="#7DB7B4"/>
</svg>
