<svg width="23" height="15" viewBox="0 0 23 15" fill="none" xmlns="http://www.w3.org/2000/svg">
<path d="M13.0822 8.23909L8.52852 3.6854L0.000183105 9.5L1.58221 11.7768L8.39346 6.9849C8.48993 6.90772 8.52852 6.90772 8.6057 6.9849L13.005 11.3842C13.0243 11.4228 13.0629 11.4421 13.1208 11.5L20.3758 4.24497L23 6.86913V6.73406V0.154362C23 0.0192953 22.9614 0 22.8456 0H16.2273H16.0923C16.9799 0.906879 17.8482 1.75587 18.6971 2.62416L13.0822 8.23909Z" fill="#7DB7B4"/>
<path d="M5 13H0V15H5V13Z" fill="#7DB7B4"/>
<path d="M11 12H6V15H11V12Z" fill="#7DB7B4"/>
<path d="M17 12H12V15H17V12Z" fill="#7DB7B4"/>
<path d="M23 10H18V15H23V10Z" fill="#7DB7B4"/>
</svg>
