<svg width="13" height="13" viewBox="0 0 13 13" fill="none" xmlns="http://www.w3.org/2000/svg">
<path fill-rule="evenodd" clip-rule="evenodd" d="M8.70383 8.1761H9.29102L13 11.8925L11.8925 13L8.1761 9.29102V8.70383L7.97541 8.49571C7.12807 9.22413 6.02802 9.66266 4.83133 9.66266C2.16295 9.66266 0 7.49971 0 4.83133C0 2.16295 2.16295 0 4.83133 0C7.49971 0 9.66266 2.16295 9.66266 4.83133C9.66266 6.02802 9.22413 7.12807 8.49571 7.97541L8.70383 8.1761ZM1.48608 4.8311C1.48608 6.68187 2.98008 8.17587 4.83085 8.17587C6.68163 8.17587 8.17562 6.68187 8.17562 4.8311C8.17562 2.98032 6.68163 1.48633 4.83085 1.48633C2.98008 1.48633 1.48608 2.98032 1.48608 4.8311Z" fill="#666666"/>
</svg>
